<?xml version="1.0" standalone="no"?>
<!DOCTYPE svg PUBLIC "-//W3C//DTD SVG 20010904//EN"
 "http://www.w3.org/TR/2001/REC-SVG-20010904/DTD/svg10.dtd">
<svg version="1.0" xmlns="http://www.w3.org/2000/svg"
 width="2276.000000pt" height="2276.000000pt" viewBox="0 0 2276.000000 2276.000000"
 preserveAspectRatio="xMidYMid meet">
<metadata>
Created by potrace 1.14, written by Peter Selinger 2001-2017
</metadata>
<g transform="translate(0.000000,2276.000000) scale(0.100000,-0.100000)"
fill="#000000" stroke="none">
<path d="M12215 15273 c21 -193 29 -251 52 -352 157 -713 627 -1138 1348
-1221 117 -13 400 -13 523 1 212 23 400 74 571 155 282 133 516 371 656 666
93 197 165 476 181 702 l7 96 -361 0 -360 0 -7 -72 c-27 -301 -77 -491 -172
-654 -56 -96 -181 -223 -273 -276 -224 -131 -603 -156 -870 -59 -195 72 -343
207 -443 406 -66 131 -119 354 -133 554 l-7 101 -359 0 -359 0 6 -47z"/>
<path d="M2165 14689 c-637 -65 -1196 -285 -1650 -651 -66 -53 -139 -116 -162
-140 l-42 -43 224 -280 c124 -154 231 -284 239 -290 12 -7 25 -1 53 26 65 62
174 144 288 218 403 263 894 396 1390 378 690 -25 1136 -326 1267 -855 18 -72
22 -118 22 -262 1 -188 -10 -271 -51 -405 -116 -373 -417 -610 -913 -719 -252
-55 -526 -75 -1042 -76 l-318 0 0 -345 0 -345 481 0 c502 0 684 -8 909 -40
853 -123 1290 -549 1290 -1260 0 -360 -114 -658 -342 -896 -258 -268 -631
-431 -1088 -475 -153 -14 -486 -7 -655 15 -576 75 -1022 292 -1463 711 l-101
96 -250 -298 -251 -298 73 -73 c391 -398 884 -683 1420 -822 282 -73 542 -107
892 -117 574 -16 1069 82 1504 298 228 112 382 221 560 394 307 299 493 664
555 1095 99 682 -113 1295 -579 1679 -198 163 -488 305 -738 361 -48 11 -57
17 -57 35 0 17 15 27 83 54 306 123 569 352 736 639 297 511 301 1262 9 1766
-285 493 -828 809 -1558 907 -167 23 -589 33 -735 18z"/>
<path d="M8098 12879 c-469 -27 -932 -160 -1403 -403 -165 -85 -444 -253 -451
-271 -4 -8 320 -552 340 -572 2 -3 62 30 133 72 382 227 730 365 1080 426 180
32 473 33 615 2 170 -37 322 -113 438 -220 210 -194 339 -542 343 -932 l2
-136 -70 -8 c-506 -56 -950 -133 -1330 -229 -569 -144 -982 -331 -1281 -580
-350 -292 -524 -706 -501 -1193 18 -371 127 -664 336 -910 368 -431 1065 -594
1733 -406 337 96 726 310 1086 598 52 41 98 71 102 67 6 -7 80 -570 80 -609 0
-3 164 -5 365 -5 l365 0 0 1628 c0 980 -4 1693 -10 1792 -32 516 -145 909
-352 1220 -77 116 -223 270 -338 356 -98 75 -304 180 -435 222 -233 76 -542
110 -847 91z m1102 -3332 l0 -723 -122 -100 c-387 -317 -661 -470 -982 -547
-80 -18 -119 -21 -316 -21 -212 0 -231 2 -324 27 -293 79 -471 246 -548 514
-20 69 -23 100 -23 263 0 162 3 195 23 263 102 355 418 606 992 792 284 91
679 173 1105 229 66 9 131 17 145 19 14 3 31 5 38 6 9 1 12 -150 12 -722z"/>
<path d="M11720 10165 l0 -2595 408 0 407 0 337 508 c185 279 627 944 982
1479 556 838 885 1351 1246 1946 58 97 88 137 101 137 24 0 24 21 -1 -380 -54
-877 -53 -834 -57 -2297 l-4 -1393 425 0 426 0 0 2595 0 2595 -404 0 -404 0
-978 -1477 c-537 -813 -1013 -1536 -1057 -1608 -44 -71 -184 -299 -312 -505
-127 -206 -247 -401 -266 -432 -26 -44 -39 -58 -57 -58 -24 0 -24 0 -17 98 8
127 51 921 67 1227 8 161 12 656 12 1495 l1 1255 -427 3 -428 2 0 -2595z"/>
<path d="M17747 12743 c-4 -3 -7 -1169 -7 -2590 l0 -2583 400 0 400 0 0 1333
c0 732 -5 1431 -10 1552 -18 405 -49 881 -76 1176 -7 69 -7 71 16 67 20 -3 31
-29 95 -213 224 -653 355 -996 642 -1690 146 -352 368 -887 494 -1190 l228
-550 333 -2 333 -3 493 1233 c271 677 522 1311 558 1407 109 292 279 758 324
888 34 97 46 122 61 122 24 0 24 6 -1 -294 -60 -738 -70 -1097 -70 -2558 l0
-1278 400 0 400 0 0 2590 0 2590 -533 0 -533 0 -487 -1217 c-483 -1210 -587
-1486 -802 -2138 -95 -289 -115 -340 -132 -343 -18 -3 -24 8 -42 70 -173 580
-330 1015 -616 1698 -112 267 -333 798 -493 1180 -160 382 -296 707 -303 723
l-12 27 -527 0 c-290 0 -530 -3 -533 -7z"/>
</g>
</svg>
