<svg width="130" height="31" xmlns="http://www.w3.org/2000/svg" fill="none" viewBox="0 0 130 31"><path fill="#FF5C00" d="M18.331 27.012c-.185.059-.336-.165-.22-.33l.255-.341c.846-1.119 1.112-2.684.672-4.239a4.428 4.428 0 0 0-2.734-2.967c-1.9-.694-3.73-.188-4.935.977-.266.248-.51.53-.718.848.753-1.79 2.502-3.038 4.541-3.038 1.668 0 2.965.825 4.043 1.955 1.181 1.248 2.49 1.801 3.487 1.801 1.702 0 2.675-.906 3.359-2.225l.035-.106c.185-.588-.035-1.283-.417-1.283-.603 0-.811.883-2.19.883-.393 0-.799-.094-1.158-.294a2.609 2.609 0 0 1-1.31-1.79c-.127-.718.128-1.413.128-1.413 1.46 1.012 3.244 1.071 4.83.153-.103-.8-.381-2.484-1.644-3.65-.544-.494-1.263-.683-2.016-.706v-.071c0-.777-.208-1.542-.614-2.19a4.842 4.842 0 0 0-.648-.812c-.081-.083-.255-.307-.371-.318 0-6.5-3.603-7.712-4.17-7.854-.035-.011-.058.024-.035.047.788 1.531-.139 2.756-2.977 4.274-2.734 1.449-3.093 3.839-3.093 3.839s-.127-2.155 1.83-3.956c-.892.27-1.401.424-2.235.836a9.265 9.265 0 0 0-2.502 1.801C6.4 7.973 5.577 9.398 5.102 10.917c-.208.66-.382 1.366-.428 2.072a9.661 9.661 0 0 1 .046-2.52 9.323 9.323 0 0 1 1.078-3.12c.278-.494.648-.93.938-1.413-.568.318-1.1.683-1.61 1.084a13.688 13.688 0 0 0-4.414 6.24c-.834 2.425-.927 5.075-.324 7.559 1.066 4.38 4.31 7.96 8.468 9.431.15.059.3.106.451.153.093.024.174.059.267.082.139.048.29.083.428.118.255.07.522.13.788.177l.209.035.486.07c.07.013.14.024.209.024h.011c.244.036.487.047.73.071 2.71.153 5.387-.577 7.646-2.002 1.401-.883 2.826-1.942 3.324-2.873.162-.306-.428-1.118-1.367-1.142-.313-.011-.834.153-1.123.354-.834.565-1.39 1.342-2.584 1.695zM6.354 19.7c-1.217 4.569 1.772 7.877 1.783 7.9-.023-.011-4.668-3.378-2.63-8.83 1.739-4.639 7.89-4.592 7.936-4.592-.035.012-5.78.624-7.09 5.522zm9.521-5.804c-.08.011-.104-.106-.034-.13.869-.306 2.247-.8 2.571-1 .255-.165.186-.495.371-1.566.37-2.167 1.911-3.333 1.923-3.333-.035.06-1.923 3.603-.452 6.417a.118.118 0 0 1-.174.153c-.764-.541-2.664-.753-4.204-.541z"/><path fill="#FF4700" d="M38.927 18.098a4.14 4.14 0 0 1 1.564 1.578c.37.671.568 1.46.568 2.343s-.186 1.672-.568 2.343a3.94 3.94 0 0 1-1.564 1.59c-.66.376-1.413.565-2.247.565-.637 0-1.228-.13-1.76-.377a3.462 3.462 0 0 1-1.321-1.107v1.378h-1.506V14.107h1.564v4.84c.347-.46.787-.813 1.309-1.049a4.103 4.103 0 0 1 1.714-.353c.834-.012 1.587.177 2.247.553zm-.892 6.63c.44-.26.788-.625 1.043-1.096.255-.47.382-1.012.382-1.613 0-.612-.127-1.142-.382-1.613a2.663 2.663 0 0 0-1.043-1.083c-.44-.26-.938-.377-1.494-.377-.544 0-1.043.13-1.483.377a2.59 2.59 0 0 0-1.042 1.083c-.255.471-.371 1.013-.371 1.613 0 .612.127 1.142.37 1.613.255.471.603.836 1.043 1.095.452.26.938.389 1.483.389.556 0 1.054-.13 1.494-.389z"/><path fill="#FF5C00" d="M36.68 26.67c-.66 0-1.274-.13-1.83-.4a3.585 3.585 0 0 1-1.1-.812v1.107h-1.808V13.942h1.877v4.58c.313-.33.672-.589 1.089-.777a4.23 4.23 0 0 1 1.772-.365c.857 0 1.645.2 2.329.588a4.28 4.28 0 0 1 1.621 1.637c.383.695.58 1.507.58 2.414 0 .906-.197 1.719-.58 2.425a4.081 4.081 0 0 1-1.621 1.648 4.813 4.813 0 0 1-2.329.577zm-3.243-2.143l.278.39c.336.458.753.823 1.262 1.059.51.247 1.078.365 1.692.365.81 0 1.54-.189 2.177-.542a3.892 3.892 0 0 0 1.495-1.519c.359-.647.544-1.413.544-2.272 0-.848-.185-1.613-.544-2.26a3.972 3.972 0 0 0-1.495-1.52c-.637-.365-1.366-.541-2.177-.541-.591 0-1.147.117-1.645.341a3.258 3.258 0 0 0-1.251 1.001l-.278.377v-5.157h-1.251v11.998h1.193v-1.72zm3.104.742a3.107 3.107 0 0 1-1.564-.412 2.76 2.76 0 0 1-1.1-1.154c-.267-.494-.394-1.06-.394-1.695 0-.636.128-1.201.394-1.696a2.91 2.91 0 0 1 1.1-1.154c.464-.27.997-.4 1.564-.4.58 0 1.112.13 1.576.4.463.271.834.66 1.1 1.143.267.494.406 1.06.406 1.695 0 .636-.14 1.201-.406 1.696a2.91 2.91 0 0 1-1.1 1.153c-.464.295-.997.424-1.576.424zm0-6.181c-.51 0-.984.118-1.413.365a2.522 2.522 0 0 0-.985 1.024c-.231.448-.359.966-.359 1.543s.116 1.095.36 1.542c.231.447.567.789.984 1.036.417.247.892.365 1.413.365.522 0 .996-.13 1.413-.365.417-.247.742-.588.985-1.036.243-.447.36-.965.36-1.542 0-.577-.128-1.095-.36-1.543a2.524 2.524 0 0 0-.985-1.024c-.405-.247-.88-.365-1.413-.365z"/><path fill="#FF4700" d="M50.013 24.197l.486 1.236c-.845.777-1.934 1.166-3.278 1.166-1.425 0-2.548-.424-3.394-1.26-.857-.836-1.274-1.966-1.274-3.367 0-1.331.405-2.426 1.205-3.31.787-.882 1.888-1.318 3.3-1.318 1.16 0 2.132.377 2.885 1.142.776.754 1.159 1.72 1.159 2.92 0 .377-.035.742-.093 1.06h-6.707c.07.824.37 1.483.927 1.954.544.471 1.262.707 2.12.707 1.123 0 2.015-.306 2.664-.93zm-3.047-5.381c-.764 0-1.39.212-1.888.648-.498.435-.788 1-.88 1.719h5.294c-.035-.73-.278-1.32-.73-1.731-.44-.424-1.043-.636-1.796-.636z"/><path fill="#FF5C00" d="M47.221 26.765c-1.46 0-2.64-.436-3.498-1.307-.88-.871-1.32-2.037-1.32-3.485 0-1.366.416-2.508 1.239-3.415.81-.906 1.957-1.365 3.405-1.365 1.205 0 2.213.4 3 1.189.8.777 1.205 1.79 1.205 3.026 0 .388-.034.753-.104 1.095l-.023.13h-6.66c.092.706.37 1.26.845 1.671.521.448 1.193.671 2.027.671 1.089 0 1.958-.294 2.572-.883l.162-.153.614 1.554-.081.071c-.869.8-2.004 1.201-3.383 1.201zm-.173-9.266c-1.356 0-2.433.424-3.186 1.271-.776.848-1.159 1.931-1.159 3.203 0 1.354.417 2.449 1.228 3.261.811.813 1.912 1.213 3.29 1.213 1.251 0 2.294-.353 3.093-1.048l-.359-.93c-.66.542-1.54.824-2.618.824-.904 0-1.645-.247-2.224-.742-.58-.494-.904-1.189-.973-2.06l-.012-.165h6.754c.046-.282.07-.589.07-.907 0-1.142-.371-2.084-1.113-2.802-.741-.742-1.68-1.118-2.791-1.118zm2.606 3.85h-5.63l.023-.177c.093-.742.406-1.354.939-1.813.52-.46 1.193-.683 1.992-.683.788 0 1.425.224 1.9.671.475.448.741 1.072.776 1.837v.165zm-5.27-.318h4.946c-.058-.612-.29-1.107-.66-1.46-.418-.389-.985-.589-1.692-.589-.718 0-1.32.2-1.796.613-.428.364-.695.847-.799 1.436z"/><path fill="#FF4700" d="M55.11 26.412h-1.552v-13.8h1.552v13.8z"/><path fill="#FF5C00" d="M55.272 26.565h-1.865V12.459h1.865v14.106zm-1.552-.306h1.24V12.777h-1.24V26.26z"/><path fill="#FF4700" d="M59.801 26.412H58.25v-13.8h1.552v13.8zm4.043-8.866h1.865l-3.776 4.12 1.934 2.108c.88 1.013 1.61 1.401 2.213 1.166l-.023 1.483c-.591.189-1.205.118-1.82-.212a4.942 4.942 0 0 1-1.667-1.483l-2.421-2.932 3.695-4.25z"/><path fill="#FF5C00" d="M65.396 26.67c-.405 0-.822-.105-1.24-.33-.636-.329-1.215-.847-1.725-1.53l-2.48-3.002v4.757h-1.864V12.459h1.865v9.29l3.811-4.356h2.294l-3.927 4.274 1.841 2.001c.835.954 1.518 1.33 2.04 1.119l.22-.083-.024 1.825-.104.036c-.243.07-.475.106-.707.106zm-5.062-4.886l2.34 2.838c.475.66 1.02 1.142 1.622 1.448.544.283 1.077.353 1.598.224l.012-1.154c-.626.118-1.332-.306-2.166-1.272L61.7 21.655l3.637-3.956h-1.436l-3.568 4.085zm-1.923 4.475h1.24V12.777h-1.24V26.26z"/><path fill="#FF4700" d="M75.393 26.412h-1.552v-.93c-.741.753-1.633 1.118-2.699 1.118-1.32 0-2.375-.424-3.162-1.26-.776-.836-1.159-1.966-1.159-3.367 0-1.295.464-2.402 1.402-3.297s2.108-1.342 3.51-1.342c1.401 0 2.618.33 3.66 1v8.078zm-3.996-1.284a2.94 2.94 0 0 0 1.344-.33c.451-.223.81-.494 1.1-.823v-4.569a4.295 4.295 0 0 0-2.131-.577c-.962 0-1.738.318-2.352.942-.59.6-.892 1.366-.892 2.284 0 .942.267 1.696.8 2.25.532.553 1.239.823 2.13.823z"/><path fill="#FF5C00" d="M71.154 26.765c-1.355 0-2.456-.436-3.278-1.307-.8-.871-1.205-2.037-1.205-3.473 0-1.342.486-2.485 1.448-3.403.973-.918 2.19-1.377 3.614-1.377 1.425 0 2.676.341 3.753 1.024l.07.047v8.3H73.69v-.73c-.719.613-1.564.92-2.537.92zm.58-9.266c-1.345 0-2.491.436-3.407 1.295-.892.86-1.343 1.931-1.343 3.18 0 1.353.382 2.46 1.123 3.26.753.801 1.784 1.213 3.047 1.213a3.539 3.539 0 0 0 2.583-1.071l.267-.271v1.154h1.239V18.44c-1.008-.624-2.19-.942-3.51-.942zm-.337 7.794c-.927 0-1.691-.294-2.247-.87-.556-.578-.834-1.378-.834-2.356 0-.953.313-1.766.938-2.402.637-.659 1.46-.989 2.456-.989.776 0 1.517.2 2.212.59l.082.046v4.722l-.035.047a3.609 3.609 0 0 1-1.147.86c-.463.223-.95.352-1.425.352zm.313-6.31c-.904 0-1.657.306-2.236.894-.567.577-.845 1.307-.845 2.178 0 .895.254 1.614.752 2.132.499.518 1.182.777 2.028.777.428 0 .857-.106 1.274-.318.405-.2.741-.46 1.008-.742V19.49a4.068 4.068 0 0 0-1.981-.506z"/><path fill="#FF4700" d="M89.282 23.987l.742 1.142c-.753.99-1.865 1.484-3.36 1.484-1.401 0-2.525-.424-3.394-1.26-.857-.836-1.274-1.966-1.274-3.367 0-1.296.417-2.402 1.263-3.297.845-.895 1.888-1.342 3.162-1.342 1.53 0 2.664.388 3.429 1.165l-.718 1.237c-.672-.613-1.506-.93-2.502-.93-.811 0-1.518.306-2.109.906-.579.589-.868 1.342-.868 2.249 0 .954.3 1.719.892 2.284.602.577 1.355.871 2.247.871.996 0 1.83-.376 2.49-1.142z"/><path fill="#FF5C00" d="M86.665 26.765c-1.437 0-2.607-.436-3.499-1.307-.88-.871-1.332-2.037-1.332-3.485 0-1.342.44-2.485 1.309-3.403.869-.918 1.97-1.39 3.278-1.39 1.564 0 2.757.413 3.545 1.213l.081.083-.88 1.519-.14-.13c-.636-.588-1.447-.883-2.397-.883-.765 0-1.448.294-2.004.86-.545.553-.823 1.271-.823 2.13 0 .907.278 1.637.846 2.167.58.542 1.297.824 2.143.824.961 0 1.76-.365 2.386-1.095l.14-.153.903 1.413-.07.094c-.787 1.025-1.957 1.543-3.486 1.543zm-.255-9.266c-1.217 0-2.248.435-3.047 1.295-.81.86-1.216 1.93-1.216 3.179 0 1.354.417 2.449 1.228 3.261.834.813 1.934 1.213 3.29 1.213 1.378 0 2.444-.447 3.162-1.33l-.568-.884c-.66.695-1.494 1.048-2.479 1.048-.926 0-1.726-.306-2.351-.906-.626-.59-.939-1.401-.939-2.402 0-.942.313-1.743.916-2.355.625-.636 1.366-.954 2.224-.954.961 0 1.784.283 2.467.836l.556-.977c-.741-.671-1.819-1.024-3.243-1.024z"/><path fill="#FF4700" d="M93.58 26.412h-1.553v-8.866h1.553v1.048c.52-.8 1.25-1.2 2.189-1.2.602 0 1.054.105 1.355.329l-.544 1.483a2.243 2.243 0 0 0-1.182-.33c-.787 0-1.401.424-1.818 1.26v6.276z"/><path fill="#FF5C00" d="M93.742 26.564h-1.865v-9.183h1.865v.741c.521-.588 1.205-.895 2.039-.895.637 0 1.123.118 1.448.366l.092.07-.648 1.766-.163-.094a2.09 2.09 0 0 0-1.1-.318c-.718 0-1.263.377-1.668 1.142v6.405zm-1.552-.306h1.24v-6.17l.01-.035c.453-.895 1.113-1.342 1.959-1.342.382 0 .752.094 1.1.27l.44-1.188c-.266-.165-.66-.236-1.17-.236-.892 0-1.575.365-2.062 1.13l-.29.436V17.71h-1.239v8.548h.012z"/><path fill="#FF4700" d="M105.512 24.197l.486 1.236c-.845.777-1.934 1.166-3.278 1.166-1.425 0-2.548-.424-3.394-1.26-.857-.836-1.274-1.966-1.274-3.367 0-1.331.405-2.426 1.204-3.31.788-.882 1.889-1.318 3.302-1.318 1.158 0 2.131.377 2.884 1.142.776.754 1.159 1.72 1.159 2.92 0 .377-.035.742-.093 1.06h-6.707c.07.824.371 1.483.927 1.954.544.471 1.262.707 2.119.707 1.124 0 2.016-.306 2.665-.93zm-3.047-5.381c-.764 0-1.39.212-1.888.648-.498.435-.788 1-.88 1.719h5.294c-.035-.73-.279-1.32-.73-1.731-.452-.424-1.043-.636-1.796-.636z"/><path fill="#FF5C00" d="M102.72 26.765c-1.459 0-2.641-.436-3.498-1.307-.88-.871-1.32-2.037-1.32-3.485 0-1.366.416-2.508 1.239-3.415.81-.906 1.958-1.365 3.406-1.365 1.204 0 2.212.4 3 1.189.799.777 1.204 1.79 1.204 3.026 0 .388-.034.753-.104 1.095l-.023.13h-6.66c.092.706.37 1.26.845 1.671.521.448 1.193.671 2.027.671 1.089 0 1.958-.294 2.572-.883l.162-.153.614 1.554-.081.071c-.869.8-2.004 1.201-3.383 1.201zm-.173-9.266c-1.356 0-2.433.424-3.186 1.271-.776.848-1.159 1.931-1.159 3.203 0 1.354.418 2.449 1.228 3.261.811.813 1.912 1.213 3.29 1.213 1.251 0 2.294-.353 3.093-1.048l-.359-.93c-.66.542-1.541.824-2.618.824-.903 0-1.645-.247-2.224-.742-.579-.494-.903-1.189-.973-2.06l-.012-.165h6.754c.046-.282.069-.589.069-.907 0-1.142-.37-2.084-1.112-2.802-.741-.742-1.679-1.118-2.791-1.118zm2.606 3.85h-5.642l.024-.177c.092-.742.405-1.354.938-1.813.521-.46 1.193-.683 1.992-.683.788 0 1.425.224 1.9.671.475.448.742 1.072.776 1.837l.012.165zm-5.282-.318h4.946c-.058-.612-.29-1.107-.66-1.46-.417-.389-.985-.589-1.692-.589-.718 0-1.32.2-1.795.613-.417.364-.683.847-.8 1.436z"/><path fill="#FF4700" d="M116.956 14.107v12.304h-1.506v-1.39c-.347.483-.787.86-1.32 1.107-.533.26-1.124.377-1.761.377-.834 0-1.587-.188-2.247-.565a4.085 4.085 0 0 1-1.564-1.59c-.371-.682-.568-1.46-.568-2.343s.186-1.66.568-2.343c.371-.67.892-1.2 1.564-1.577.66-.377 1.413-.566 2.247-.566.625 0 1.193.118 1.714.354.522.235.962.588 1.309 1.048v-4.84h1.564v.024zm-2.965 10.62a2.621 2.621 0 0 0 1.042-1.095c.255-.47.371-1.012.371-1.613 0-.612-.127-1.142-.371-1.613a2.664 2.664 0 0 0-1.042-1.083 2.901 2.901 0 0 0-1.483-.377 3 3 0 0 0-1.494.377 2.734 2.734 0 0 0-1.043 1.083c-.255.471-.382 1.013-.382 1.613 0 .613.127 1.142.382 1.613.255.471.602.836 1.043 1.095.44.26.938.389 1.494.389a2.94 2.94 0 0 0 1.483-.389z"/><path fill="#FF5C00" d="M112.369 26.671c-.857 0-1.645-.2-2.328-.588a4.229 4.229 0 0 1-1.622-1.649c-.382-.706-.579-1.519-.579-2.425 0-.907.197-1.72.579-2.414a4.124 4.124 0 0 1 1.622-1.637c.683-.388 1.471-.588 2.328-.588.637 0 1.24.13 1.772.365.418.188.777.447 1.089.777v-4.58h1.877v12.621H115.3v-1.106a3.588 3.588 0 0 1-1.101.812c-.544.27-1.17.412-1.83.412zm0-8.972c-.811 0-1.541.189-2.178.542a3.891 3.891 0 0 0-1.494 1.519c-.359.647-.544 1.413-.544 2.26 0 .848.185 1.614.544 2.273a3.894 3.894 0 0 0 1.494 1.519c.637.365 1.367.541 2.178.541.614 0 1.182-.117 1.691-.365.51-.247.927-.6 1.263-1.06l.278-.388v1.72h1.193V14.26h-1.251v5.157l-.278-.376a3.258 3.258 0 0 0-1.251-1.001c-.486-.236-1.042-.342-1.645-.342zm.139 7.571a3.086 3.086 0 0 1-1.575-.412 2.91 2.91 0 0 1-1.101-1.154 3.525 3.525 0 0 1-.405-1.695c0-.636.139-1.201.405-1.696a2.805 2.805 0 0 1 1.101-1.142c.463-.27.984-.4 1.575-.4.568 0 1.089.13 1.564.4.475.27.846.66 1.1 1.154.267.495.394 1.06.394 1.695 0 .636-.127 1.201-.394 1.696a2.908 2.908 0 0 1-1.1 1.154c-.475.27-.996.4-1.564.4zm0-6.181c-.521 0-.996.117-1.413.365-.417.235-.741.588-.985 1.024-.243.447-.359.965-.359 1.542 0 .577.128 1.095.359 1.543.244.447.568.789.985 1.036.417.247.892.365 1.413.365.51 0 .985-.13 1.413-.365.417-.247.753-.589.985-1.036.232-.448.359-.966.359-1.543 0-.576-.116-1.095-.359-1.542a2.525 2.525 0 0 0-.985-1.024 2.78 2.78 0 0 0-1.413-.365z"/><path fill="#FF4700" d="M120.072 14.213c0-.27.093-.506.29-.683.197-.176.428-.27.718-.27.266 0 .498.094.684.27.185.177.266.4.266.683 0 .306-.093.553-.266.742a.912.912 0 0 1-.684.282.987.987 0 0 1-.718-.282c-.197-.2-.29-.448-.29-.742zm1.749 12.198h-1.552v-8.866h1.552v8.866z"/><path fill="#FF5C00" d="M121.972 26.564h-1.865v-9.183h1.865v9.183zm-1.552-.306h1.239v-8.56h-1.239v8.56zm.66-10.867c-.324 0-.602-.106-.822-.33a1.164 1.164 0 0 1-.336-.848c0-.317.116-.588.347-.8.22-.2.499-.306.823-.306.313 0 .579.106.788.306.208.212.324.47.324.789 0 .341-.104.624-.313.847a1.085 1.085 0 0 1-.811.342zm0-1.966a.863.863 0 0 0-.614.223.73.73 0 0 0-.243.566.841.841 0 0 0 .857.87.763.763 0 0 0 .568-.235.883.883 0 0 0 .232-.624c0-.235-.07-.424-.221-.565a.76.76 0 0 0-.579-.235z"/><path fill="#FF4700" d="M124.845 23.043v-7.96h1.552v2.461h3.197v1.484h-3.197v3.85c0 1.472.521 2.202 1.552 2.202.51 0 .962-.165 1.379-.495l.486 1.225c-.602.495-1.355.754-2.235.754-.939 0-1.634-.295-2.074-.872-.44-.565-.66-1.46-.66-2.649z"/><path fill="#FF5C00" d="M127.579 26.73c-.985 0-1.726-.319-2.201-.93-.464-.601-.695-1.531-.695-2.756V14.92h1.865v2.46h3.197v1.79h-3.197v3.71c0 1.377.451 2.048 1.401 2.048.475 0 .892-.153 1.286-.46l.162-.129.603 1.52-.093.07c-.637.53-1.425.8-2.328.8zm-2.584-11.492v7.806c0 1.154.209 2.013.626 2.567.405.53 1.066.8 1.958.8.799 0 1.482-.212 2.038-.647l-.37-.93c-.394.27-.834.4-1.309.4-1.136 0-1.703-.8-1.703-2.367v-4.015h3.197V17.7h-3.197v-2.461h-1.24z"/></svg>