<svg width="822" height="151" viewBox="0 0 822 151" fill="none" xmlns="http://www.w3.org/2000/svg">
<path d="M122.035 4.1135H90.3204L55.7517 56.1295H42.4624L53.5504 4.1135H24.8519L0.0668945 120.864H28.6838L41.1579 62.4888L39.7719 68.8481H53.0612L65.3722 120.864H97.0058L80.9444 62.4888L122.035 4.1135Z" fill="#222222"/>
<path d="M155.544 34.5241C132.39 34.5241 111.926 50.8301 112.089 74.066L132.634 75.289C132.471 66.973 140.461 60.7767 150.571 60.7767C161.088 60.7767 165.654 67.6252 164.676 76.4304H136.466L135.488 81.2407H163.616C160.599 91.3504 152.854 96.9759 142.499 96.9759C133.042 96.9759 127.987 93.4701 127.172 87.3554L106.056 97.0574C105.811 112.304 117.47 123.392 138.831 123.392C162.719 123.392 182.041 107.33 187.993 78.9578C194.189 50.0148 179.759 34.5241 155.544 34.5241Z" fill="#222222"/>
<path d="M307.271 37.1331L295.205 94.2854H269.115L281.263 37.1331H256.56L244.412 94.2854H218.404L230.633 37.1331H205.848L188.075 120.864H314.12L331.975 37.1331H307.271Z" fill="#222222"/>
<path d="M446.605 4.1135H374.289L365.973 43.4924C359.206 75.5336 350.808 90.372 337.763 91.0242H330.181L319.745 140.024H332.79L336.866 120.864H420.679L416.684 140.024H429.729L440.165 90.6981H428.098L446.605 4.1135ZM380.24 45.7752L382.931 34.0349H413.178L401.112 90.7796L360.836 90.9427C369.315 81.6483 375.512 66.8099 380.24 45.7752Z" fill="#222222"/>
<path d="M437.148 150.459H461.77L468.211 120.13C469.434 114.016 469.841 106.923 470.412 100.237H471.472C471.717 113.934 481.011 123.392 494.463 123.392C515.254 123.392 530.744 107.656 536.777 78.9578C542.566 51.8899 534.984 34.6056 513.867 34.6056C499.844 34.6056 485.658 46.7536 477.913 66.3207H476.935L485.577 37.1331H461.199L437.148 150.459ZM489.735 96.9759C478.81 96.9759 472.94 91.4319 475.63 78.9578C477.994 68.0328 485.577 61.1028 496.991 61.1028C508.16 61.1028 513.541 67.3806 511.096 79.0394C508.568 91.0242 500.578 96.9759 489.735 96.9759Z" fill="#222222"/>
<path d="M567.84 123.392C583.086 123.392 594.256 113.771 601.594 96.4867H602.572C601.186 101.542 600.126 105.21 600.126 108.716C600.126 117.848 606.159 123.392 623.607 123.392H628.498L633.961 96.9759C625.319 96.9759 626.379 93.0625 628.009 85.3987L638.363 37.1331H613.008C611.948 48.058 611.133 56.9448 609.828 67.3806H608.85C609.176 47.895 601.186 34.5241 584.961 34.5241C555.611 34.5241 541.506 67.6252 541.506 94.1224C541.506 112.385 551.371 123.392 567.84 123.392ZM581.863 96.8129C571.672 96.8129 565.883 92.3287 565.883 84.2573C565.883 73.9845 571.998 61.0213 588.06 61.0213C597.925 61.0213 604.447 65.0162 604.447 73.4953C604.447 83.6866 597.028 96.8129 581.863 96.8129Z" fill="#222222"/>
<path d="M716.714 0.200073C715.246 12.348 712.148 19.8487 702.527 19.8487C693.396 19.8487 693.478 12.348 697.146 0.200073L679.291 1.42302C676.03 16.4245 683.042 26.1265 701.141 26.1265C720.219 26.1265 730.9 16.506 734.079 1.34149L716.714 0.200073ZM722.095 120.864L739.95 37.1331H715.491L665.839 95.5899H665.268C666.247 92.1657 667.877 87.763 669.263 81.2407L678.639 37.3776L654.262 37.1331L636.488 120.864H659.969L710.354 62.5704H710.925C710.11 65.3424 708.561 70.0711 707.338 75.7782L697.717 120.864H722.095Z" fill="#222222"/>
<path d="M733.835 120.864H776.883C800.037 120.864 812.511 110.918 815.691 96.0791C818.137 84.4203 809.331 77.5718 796.205 76.675C808.842 75.7782 819.033 69.6634 821.398 58.4123C824.496 43.9 813.979 37.1331 794.493 37.1331H751.608L733.835 120.864ZM768.159 70.9679L771.746 53.9282H786.666C793.759 53.9282 796.939 56.3741 795.716 62.0812C794.411 68.1959 790.09 70.9679 783.242 70.9679H768.159ZM761.066 104.069L765.142 85.0726H780.959C788.867 85.0726 792.536 87.8446 791.069 94.7746C789.52 102.031 784.465 104.069 776.312 104.069H761.066Z" fill="#222222"/>
</svg>
