<svg width="103" height="34" viewBox="0 0 103 34" fill="none" xmlns="http://www.w3.org/2000/svg">
<path d="M18.409 15.7794C17.7668 15.1422 16.6966 14.1864 15.5192 13.7616C14.3419 13.2306 12.9506 12.912 11.6663 12.912C6.4219 12.912 2.67593 17.0537 2.67593 22.1512C2.67593 28.2044 7.59921 31.2841 11.7733 31.2841C13.2717 31.2841 14.7701 30.8593 15.9474 30.2221C17.2317 29.5849 18.0879 28.7354 18.516 28.3106V31.3903C15.9474 33.1956 13.4857 33.5142 11.7733 33.5142C4.92351 33.5142 0.000244141 28.523 0.000244141 22.045C0.000244141 15.3546 5.03054 10.4695 11.7733 10.4695C13.1646 10.4695 15.7333 10.6819 18.409 12.6996V15.7794Z" fill="#67579C"/>
<path d="M22.369 19.2839H24.8307V20.7706C25.1517 20.3458 26.115 18.9653 27.9345 18.9653C28.6837 18.9653 29.4328 19.2839 30.075 19.4963L28.8977 21.6202C28.3626 21.1954 27.8274 21.0892 27.5063 21.0892C26.5431 21.0892 25.9009 21.514 25.5798 21.9388C25.1517 22.4698 24.8307 23.4255 24.8307 25.6557V32.9833H22.369V19.2839Z" fill="#67579C"/>
<path d="M43.8816 29.585C43.4534 30.3283 42.9183 31.1779 42.1691 31.8151C40.8848 32.9833 39.3864 33.5143 37.5669 33.5143C34.2491 33.5143 30.7172 31.4965 30.7172 26.2929C30.7172 22.1512 33.2858 18.9653 37.4599 18.9653C40.2426 18.9653 41.848 20.3458 42.7043 21.514C43.5605 22.7884 44.0956 24.8061 43.9886 26.7176H33.0718C33.0718 29.585 35.1053 31.3903 37.4599 31.3903C38.5302 31.3903 39.4934 31.0717 40.3496 30.4345C40.9918 29.9036 41.5269 29.1602 41.848 28.523L43.8816 29.585ZM41.5269 24.6999C41.0988 22.576 39.4934 21.0892 37.4599 21.0892C35.4264 21.0892 33.7139 22.576 33.3929 24.6999H41.5269Z" fill="#67579C"/>
<path d="M58.3303 8.77039H60.792V33.0895H58.3303V31.1779C57.5811 32.2399 55.9757 33.5143 53.5141 33.5143C49.9822 33.5143 46.6643 31.0717 46.6643 26.1867C46.6643 21.4078 49.8751 18.9653 53.5141 18.9653C56.1898 18.9653 57.6882 20.452 58.3303 21.3016V8.77039ZM49.233 26.1867C49.233 29.1602 50.9454 31.3903 53.8352 31.3903C56.8319 31.3903 58.4374 28.9478 58.4374 26.1867C58.4374 22.576 55.9757 21.0892 53.8352 21.0892C51.4806 20.983 49.233 22.7884 49.233 26.1867Z" fill="#67579C"/>
<path d="M66.2503 12.2749C67.2136 12.2749 67.9628 13.0183 67.9628 13.974C67.9628 14.9298 67.2136 15.6732 66.2503 15.6732C65.2871 15.6732 64.5379 14.9298 64.5379 13.974C64.5379 13.0183 65.2871 12.2749 66.2503 12.2749ZM67.4276 19.2839V33.1957H64.966V19.2839H67.4276Z" fill="#67579C"/>
<path d="M74.4915 21.4078V33.0895H72.0299V21.4078H70.6385V19.1777H72.1369V14.1864H74.5985V19.1777H77.0601V21.4078H74.4915Z" fill="#67579C"/>
<path d="M91.937 0.593201C84.231 0.593201 80.485 7.28361 81.5553 14.3988C81.6623 15.3546 82.5186 17.7971 83.2678 19.6024C84.5521 22.3636 86.1575 25.1247 87.4418 27.3548L96.9673 11.0005H86.6926V9.08895H87.4418H99.2148H99.857V9.83233L99.2148 10.8943L88.6191 29.2664C90.0105 31.4965 91.1878 32.8771 91.5089 32.8771C92.4721 32.8771 100.927 22.576 102.533 14.1864C103.817 7.07121 99.643 0.593201 91.937 0.593201Z" fill="#59C2A4"/>
</svg>
