<?xml version="1.0" encoding="utf-8"?>
<svg viewBox="0 0 122.6 20.2" xmlns="http://www.w3.org/2000/svg">
  <g fill="#8ebf17">
    <path d="M49.5,14c-0.7,0.4-1.7,0.6-2.5,0.6c-2.7,0-4.6-1.9-4.6-4.4c0-2.6,2.1-4.5,4.7-4.5c0.9,0,1.7,0.2,2.3,0.5v1.6
				c-0.7-0.4-1.5-0.7-2.4-0.7c-1.8,0-3.1,1.4-3.1,3.1s1.3,3,3.1,3c1,0,1.8-0.3,2.4-0.8L49.5,14L49.5,14z"/>
    <path d="M51.7,5.9h1.5v1.2l0,0c0.6-0.8,1.5-1.3,2.5-1.3c0.2,0,0.4,0,0.6,0.1v1.5c-0.2-0.1-0.4-0.1-0.6-0.1
				c-1.2,0-2,0.6-2.5,1.5v5.5h-1.5V5.9z"/>
    <path d="M58.8,10.6c0.2,1.7,1.5,2.6,3.1,2.6c1.2,0,2.1-0.5,2.9-1v1.7c-0.8,0.5-1.9,0.8-3,0.8c-2.6,0-4.6-1.8-4.6-4.4
				c0-2.7,1.9-4.4,4.2-4.4c2.1,0,3.9,1.4,3.9,4.1c0,0.3,0,0.6-0.1,0.8h-6.4V10.6z M58.8,9.4h5c-0.1-1.7-1.4-2.3-2.4-2.3
				C60.3,7.1,59.1,7.8,58.8,9.4z"/>
    <path d="M71.4,5.7c0.8,0,1.5,0.2,2,0.4l0,0V1.2H75v13.1h-1.5v-0.5l0,0c-0.6,0.4-1.4,0.7-2.4,0.7
				c-2.3,0-4.1-1.7-4.1-4.3C66.9,7.7,68.8,5.7,71.4,5.7z M71.3,13.2c0.8,0,1.6-0.3,2.2-0.7V7.6c-0.6-0.3-1.3-0.5-2.1-0.5
				c-1.8,0-2.9,1.4-2.9,3.1S69.5,13.2,71.3,13.2z"/>
    <path d="M78.5,1.9c0.6,0,1.1,0.5,1.1,1.1s-0.5,1.1-1.1,1.1S77.4,3.6,77.4,3S77.9,1.9,78.5,1.9z M77.7,5.9h1.5v8.5h-1.5
				V5.9z"/>
    <path d="M82.7,11.4V7.3h-1.6V5.9h1.6V3.6l1.5-0.3v2.6h2.5v1.4h-2.5v3.8c0,1,0.2,2,1.3,2c0.4,0,0.9-0.2,1.3-0.4v1.5
				c-0.3,0.2-0.9,0.3-1.5,0.3s-1.4-0.2-1.9-0.8C82.9,13.3,82.7,12.6,82.7,11.4z"/>
    <path d="M10.1,15.1C7.3,15.1,5,12.8,5,10c0-2.7,2.3-5,5.1-5C11.6,5,13,5.7,14,6.8l3-4.1C13-1,6.8-0.9,3,3
				c-4,3.9-4,10.3,0,14.3c3.1,3.1,7.7,3.8,11.4,2L11.2,15C10.8,15.1,10.4,15.1,10.1,15.1z"/>
  </g>
  <g fill="#333c42">
    <path d="M92.8,18.1h-2.6V5.9h2.6v0.4l0,0c0.5-0.3,1.2-0.6,2-0.6c2.2,0,4,1.7,4,4.4s-1.9,4.5-4.4,4.5
				c-0.7,0-1.2-0.1-1.6-0.3l0,0V18.1z M94.1,12.4c1.4,0,2.1-1,2.1-2.2c0-1.3-0.8-2.3-2-2.3c-0.5,0-1,0.2-1.4,0.5v3.7
				C93.1,12.3,93.6,12.4,94.1,12.4z"/>
    <path d="M100.5,1.2h2.6v13.1h-2.6V1.2z"/>
    <path d="M110.9,13.6c-0.7,0.6-1.5,1-2.6,1c-1,0-1.7-0.3-2.2-0.8c-0.5-0.6-0.8-1.3-0.8-2.6V5.9h2.6v4.8
				c0,0.6,0.1,1,0.3,1.2c0.2,0.3,0.6,0.4,0.9,0.4c0.7,0,1.3-0.4,1.7-0.8V5.9h2.6v8.5h-2.6L110.9,13.6L110.9,13.6z"/>
    <path d="M115.5,11.6c1.2,0.7,2.5,1,3.3,1c0.7,0,1.2-0.2,1.2-0.7c0-0.7-0.9-0.6-2.2-0.9c-1.6-0.4-2.5-1.1-2.5-2.5
				c0-1.8,1.6-2.8,3.7-2.8c1,0,2.3,0.2,3.2,0.7v2.3c-1.1-0.6-2.4-0.9-3.2-0.9c-0.7,0-1.1,0.2-1.1,0.6c0,0.6,0.9,0.6,2.2,0.9
				c1.6,0.4,2.6,1,2.6,2.5c0,1.9-1.6,2.9-3.8,2.9c-1,0-2.3-0.2-3.3-0.7L115.5,11.6L115.5,11.6z"/>
    <path d="M33.1,1.5C28.5-1.3,22.7,0,19.6,4.2l0,0l-5.9,8.7l3.2,4.8l2-2.7c0.8,1.5,2,2.8,3.6,3.8c4.8,2.9,11,1.4,13.9-3.4
				C39.4,10.6,37.9,4.3,33.1,1.5z M27.9,15.1c-2.8,0-5.1-2.3-5.1-5.1s2.3-5,5.1-5S33,7.3,33,10.1S30.7,15.1,27.9,15.1z"/>
  </g>
</svg>
