<svg xmlns="http://www.w3.org/2000/svg" width="185" height="33" viewBox="0 0 185 33">
  <path fill="#ED1C24"  d="M9.87615385,12.1986154 C11.3789706,12.6460556 12.3943301,14.0465514 12.3523077,15.614 L12.3523077,30.0724615 C12.4222433,31.1858606 11.6751848,32.185955 10.5876923,32.4347692 C10.4745987,32.4509711 10.3600753,32.4547885 10.2461538,32.4461538 C10.0288736,32.4430271 9.81354886,32.4045762 9.60861538,32.3323077 C7.14384615,31.45 4.64492308,30.6246154 2.20861538,29.674 C0.842461538,28.9966154 1.77635684e-15,27.9833846 1.77635684e-15,26.4350769 L1.77635684e-15,9.86476923 C1.77635684e-15,8.35630769 0.762769231,7.49676923 2.02646154,6.83076923 C1.64797694,7.31320777 1.5040114,7.93914493 1.63369231,8.53846154 C1.78830383,9.02210288 2.15829187,9.40680634 2.63553846,9.58015385 C5.01492308,10.4510769 7.474,11.3846154 9.87615385,12.1986154 Z M9.30692308,23.6458462 C9.916,23.6970769 10.4453846,23.0766154 10.4453846,22.2056923 C10.4453846,21.3347692 9.97861538,20.6232308 9.36953846,20.572 C8.76046154,20.5207692 8.23107692,21.1412308 8.23107692,22.0121538 C8.23107692,22.8830769 8.68076923,23.5889231 9.28415385,23.6458462 L9.30692308,23.6458462 Z"></path>
  <path fill="#F99D1C" d="M21.9950769 7.15523077C16.3938462 9.14184615 11.8627692 10.7356923 8.81169231 11.8172308L9.87615385 12.1986154C11.3900163 12.6303701 12.4126726 14.0409304 12.3523077 15.614L12.3523077 23.4238462 19.536 20.6915385C20.9478818 20.192804 21.9190702 18.8911419 21.9950769 17.3956923L21.9950769 7.15523077zM1.63369231 8.53846154C1.78830383 9.02210288 2.15829187 9.40680634 2.63553846 9.58015385L4.83846154 10.3827692 21.9950769 4.12123077 21.9950769 2.03215385C21.6307692.774153846 20.1906154.261846154 18.8358462.751384615 14.6406154 2.27692308 6.26153846 5.31092308 2.06630769 6.83076923L2.01507692 6.85923077C1.6460829 7.33512975 1.50646583 7.94986163 1.63369231 8.53846154z"></path>
  <g fill="#534B63" transform="translate(29.03 7.4)">
    <path d="M2.22 13.69C2.47615385 12.7336923 2.73230769 11.7432308 2.98846154 10.7356923 3.24461538 9.72815385 3.49507692 8.59538462 3.75123077 7.32030769 3.9406937 6.30265327 4.26018348 5.31357413 4.70184615 4.37738462 5.06314671 3.618377 5.56984353 2.93762403 6.19323077 2.37369231 6.79129551 1.85194064 7.49380869 1.46381181 8.25384615 1.23523077 9.11997801.977904379 10.0200699.853158174 10.9235385.865230769L13.0923077.865230769C13.4767821.846287038 13.8616925.892476288 14.2307692 1.00184615 14.4605203 1.10908366 14.6571497 1.27621861 14.8 1.48569231L14.8 13.69 17.2932308 13.69 17.2932308 20.7484615 14.0372308 20.7484615 14.0372308 16.6044615 3.25030769 16.6044615 3.25030769 20.7484615 0 20.7484615 0 13.69 2.22 13.69zM6.93892308 7.73584615C6.70553846 8.87430769 6.47215385 9.88753846 6.22738462 10.8381538 5.98261538 11.7887692 5.73215385 12.7450769 5.47030769 13.6843077L11.4927692 13.6843077 11.4927692 3.774 11.0373846 3.774C10.4776856 3.76172818 9.91983582 3.84252021 9.38661538 4.01307692 8.95610067 4.16783467 8.56668447 4.41900812 8.24815385 4.74738462 7.91430636 5.10755284 7.64991542 5.52633265 7.46830769 5.98261538 7.2374553 6.54920176 7.06021858 7.13617929 6.93892308 7.73584615zM32.1558462 10.7584615C32.1633982 11.593721 32.0107455 12.4226831 31.7061538 13.2004615 31.4208285 13.9388912 30.9846163 14.6096887 30.4253846 15.17 29.8526337 15.7441517 29.1715632 16.1988437 28.4216923 16.5076923 26.7424576 17.1681756 24.8753885 17.1681756 23.1961538 16.5076923 22.4480048 16.20077 21.7672735 15.7501723 21.1924615 15.1813846 20.6360023 14.6166795 20.2036403 13.9419621 19.9230769 13.2004615 19.3310761 11.6282401 19.3310761 9.89437528 19.9230769 8.32215385 20.2084022 7.58372423 20.6446145 6.91292672 21.2038462 6.35261538 21.7786581 5.78382767 22.4593894 5.33322997 23.2075385 5.02630769 24.8867731 4.3658244 26.7538422 4.3658244 28.4330769 5.02630769 29.181995 5.33177604 29.8629952 5.78255177 30.4367692 6.35261538 30.9960009 6.91292672 31.4322131 7.58372423 31.7175385 8.32215385 32.017798 9.09883831 32.1665787 9.92582756 32.1558462 10.7584615zM28.8998462 10.7584615C28.9044726 10.267887 28.8393073 9.7791475 28.7063077 9.30692308 28.5952472 8.88426361 28.4018021 8.48770108 28.1370769 8.14 27.5727733 7.44818545 26.7273127 7.04676425 25.8345385 7.04676425 24.9417642 7.04676425 24.0963036 7.44818545 23.532 8.14 23.2654399 8.48656715 23.0718065 8.88351551 22.9627692 9.30692308 22.7047169 10.2593429 22.7047169 11.2632725 22.9627692 12.2156923 23.0764621 12.6286667 23.2698362 13.0154149 23.532 13.3541538 24.0974585 14.0440809 24.9424944 14.4440891 25.8345385 14.4440891 26.7265825 14.4440891 27.5716184 14.0440809 28.1370769 13.3541538 28.3974173 13.014272 28.5906064 12.6278937 28.7063077 12.2156923 28.8396912 11.7416035 28.9048586 11.250931 28.8998462 10.7584615z"></path>
    <path d="M44.0869231,10.0298462 C43.6305163,10.0684416 43.1746205,9.94994884 42.7947692,9.694 C42.5077061,9.42693548 42.3587848,9.04309604 42.3906154,8.65230769 C42.386217,8.35499888 42.4206621,8.05838857 42.4930769,7.77 C42.5433495,7.57183709 42.6179144,7.38064505 42.7150769,7.20076923 L45.3904615,7.20076923 C45.8546959,7.20934726 46.3179897,7.15574302 46.768,7.04138462 C47.0848149,6.95737678 47.383759,6.81658376 47.6503077,6.62584615 C47.8584457,6.4766255 48.0170686,6.26843298 48.1056923,6.02815385 C48.190898,5.79478533 48.2333205,5.54796376 48.2309231,5.29953846 C48.229742,5.04856155 48.1834681,4.79983944 48.0943077,4.56523077 C47.9929378,4.31013445 47.8236332,4.08767603 47.6047692,3.922 C47.3175578,3.71738281 46.9954052,3.56691633 46.6541538,3.478 C46.1671433,3.35331014 45.6653599,3.29585402 45.1627692,3.30723077 C44.6547706,3.30054196 44.1479549,3.35791733 43.6543077,3.478 C43.2599724,3.57960551 42.8781439,3.72470036 42.5158462,3.91061538 C42.2211925,4.06461335 41.9476072,4.25593175 41.7018462,4.47984615 C41.5223889,4.65178068 41.3620705,4.84263597 41.2236923,5.04907692 C40.8390667,4.92683518 40.4947953,4.70256693 40.2275385,4.40015385 C39.9547854,4.11313902 39.8038134,3.73162856 39.8063077,3.33569231 C39.8038683,3.10586055 39.8384652,2.87713625 39.9087692,2.65830769 C39.9999776,2.41874689 40.1439471,2.2027927 40.33,2.02646154 C40.497583,1.87524139 40.6743839,1.73456105 40.8593846,1.60523077 C41.1666809,1.39535539 41.4971115,1.22154509 41.8441538,1.08723077 C42.3288416,0.900111315 42.8300826,0.759077748 43.3412308,0.666 C44.0325581,0.543289159 44.7339257,0.486112458 45.436,0.495230769 C46.3251544,0.479741576 47.211063,0.606574475 48.0601538,0.870923077 C48.7510868,1.08846048 49.398455,1.42563143 49.9727692,1.86707692 C50.4644533,2.24698564 50.8634578,2.73357652 51.1396923,3.29015385 C51.3958711,3.80083356 51.5303061,4.36390186 51.5324615,4.93523077 C51.5809594,5.75931682 51.3189745,6.57167302 50.7981538,7.21215385 C50.2533288,7.80095226 49.5790638,8.25500934 48.8286154,8.53846154 C49.2970051,8.70536408 49.7396351,8.93721792 50.1435385,9.22723077 C50.4946241,9.47447614 50.8040019,9.77616752 51.06,10.1209231 C51.2915723,10.4247962 51.470518,10.7653702 51.5893846,11.1284615 C51.7000509,11.460801 51.7576801,11.8084973 51.7601538,12.1587692 C51.7710384,12.8468758 51.6127059,13.5271191 51.2990769,14.1396923 C50.9932119,14.730535 50.5595845,15.2458321 50.0296923,15.6481538 C49.4553275,16.088186 48.8023369,16.4146813 48.1056923,16.6101538 C47.3219118,16.8394338 46.5087552,16.9525853 45.6921538,16.946 C44.8976219,16.952887 44.1038255,16.8957793 43.3184615,16.7752308 C42.699152,16.6764591 42.0868946,16.5376554 41.4855385,16.3596923 C41.0296221,16.2270972 40.5858983,16.0557018 40.1592308,15.8473846 C39.8799044,15.7082522 39.6081862,15.5543419 39.3452308,15.3863077 L40.7910769,13.0069231 C40.9732308,13.1093846 41.2066154,13.2289231 41.4855385,13.3598462 C41.8055035,13.5026163 42.1344617,13.6243118 42.4703077,13.7241538 C42.8806877,13.8491708 43.2990869,13.9461633 43.7226154,14.0144615 C44.2064008,14.0916945 44.6956292,14.1297668 45.1855385,14.1283077 C45.7068545,14.1385862 46.2273011,14.081184 46.7338462,13.9575385 C47.0961331,13.8698231 47.438184,13.7132914 47.7413846,13.4964615 C47.9764184,13.3290562 48.1614015,13.1007792 48.2764615,12.8361538 C48.3827101,12.5859519 48.4369383,12.3167476 48.4358462,12.0449231 C48.4479464,11.4746055 48.1800226,10.934505 47.7186154,10.5990769 C46.9672691,10.1591335 46.0989791,9.96044009 45.2310769,10.0298462 L44.0869231,10.0298462 Z"></path>
    <path d="M65.1370769 16.5076923C65.0915385 16.5076923 64.9207692 16.5532308 64.6304615 16.6044615 64.3401538 16.6556923 63.9587692 16.6955385 63.492 16.7410769 63.0252308 16.7866154 62.4446154 16.8264615 61.7843077 16.8663077 61.124 16.9061538 60.4124615 16.9232308 59.6326154 16.9232308 58.696596 16.9431742 57.7616906 16.8475806 56.8490769 16.6386154 56.233148 16.4903252 55.6527287 16.2213976 55.1413846 15.8473846 54.7418422 15.5471924 54.4374517 15.1380442 54.2647692 14.6690769 54.0970459 14.193908 54.0141943 13.6929449 54.02 13.1890769 54.0102516 12.6057765 54.1126725 12.026036 54.3216923 11.4813846 54.4991063 10.9869414 54.820229 10.5567956 55.2438462 10.2461538 55.7603657 9.90061432 56.3411155 9.66250689 56.9515385 9.546 57.7853981 9.38024041 58.6345619 9.30391108 59.4846154 9.31830769 60.1733846 9.31830769 60.7426154 9.31830769 61.1923077 9.37523077L61.9949231 9.45492308 61.9949231 9.10769231C62.0318605 8.47100136 61.7582179 7.85583589 61.2606154 7.45692308 60.5840261 7.02395168 59.7844341 6.8240537 58.9836923 6.88769231 58.5757881 6.8833343 58.1688021 6.92728114 57.7712308 7.01861538 57.4602782 7.08632272 57.1570234 7.18550036 56.8661538 7.31461538 56.6450362 7.41161359 56.4318693 7.52581011 56.2286154 7.65615385 56.0521538 7.77 55.9098462 7.86107692 55.8016923 7.918 55.2920821 7.5951024 54.981238 7.03558298 54.9763077 6.43230769 54.9699243 6.11473449 55.0861238 5.80690774 55.3007692 5.57276923 55.5399931 5.319805 55.8340425 5.12507034 56.1603077 5.00353846 56.5577783 4.85046202 56.9726814 4.74721425 57.3955385 4.69615385 57.8692263 4.63391904 58.3465517 4.60349192 58.8243077 4.60507692 59.6821546 4.59800484 60.5385005 4.67810847 61.3801538 4.84415385 62.0932079 4.98182714 62.7709566 5.26260871 63.3724615 5.66953846 63.934353 6.06512818 64.3804329 6.60356828 64.6646154 7.22923077 64.9954642 7.99758648 65.1528909 8.82942145 65.1256923 9.66553846L65.1370769 16.5076923zM61.9778462 11.47L61.6989231 11.4244615 61.198 11.3789231C60.9987692 11.3789231 60.7824615 11.3789231 60.5433846 11.3447692L59.8204615 11.3447692C59.3593116 11.3339909 58.8985828 11.3798726 58.4486154 11.4813846 58.1515762 11.5442615 57.8730304 11.674769 57.6346154 11.8627692 57.4499425 12.0080248 57.3147345 12.2068602 57.2475385 12.432 57.1765816 12.6586408 57.1401224 12.8946662 57.1393846 13.1321538 57.1395724 13.3427177 57.172212 13.5519948 57.2361538 13.7526154 57.3045055 13.9648066 57.4354776 14.1513427 57.6118462 14.2876923 57.8503311 14.471126 58.1232861 14.6046997 58.4144615 14.6804615 58.8585936 14.7812244 59.3143166 14.8214352 59.7692308 14.8 60.2523974 14.8048047 60.7353652 14.7781845 61.2150769 14.7203077 61.5964615 14.6633846 61.8526154 14.6235385 61.9949231 14.5893846L61.9778462 11.47zM68.5695385 5.69230769L69.0761538 5.43046154C69.4141205 5.26835687 69.7667323 5.13874819 70.1292308 5.04338462 70.6643724 4.89193291 71.2079836 4.77218639 71.7572308 4.68476923 72.4839687 4.57093137 73.2189027 4.5176201 73.9544615 4.52538462 74.8919298 4.50925218 75.8242287 4.66753066 76.7038462 4.99215385 77.4766254 5.28788398 78.1814724 5.73712708 78.7758462 6.31276923 79.3554517 6.8897084 79.8039371 7.58476377 80.0907692 8.35061538 80.4064657 9.19296222 80.5628143 10.0866583 80.5518462 10.9861538 80.5688975 11.8340961 80.4200021 12.6771923 80.1135385 13.468 79.8502661 14.1397335 79.4488299 14.7486755 78.9352308 15.2553846 78.4477622 15.7325574 77.8661548 16.1028474 77.2275385 16.3426154 76.5651131 16.5909032 75.8629568 16.7162882 75.1555385 16.7126154 74.6823297 16.7195064 74.2100832 16.6678843 73.7495385 16.5589231 73.3955987 16.479625 73.0504535 16.3652122 72.7192308 16.2173846 72.487816 16.1167229 72.2682706 15.990723 72.0646154 15.8416923 71.9635802 15.7675924 71.8718421 15.6815879 71.7913846 15.5855385L71.7913846 21.1753846 68.5809231 21.1753846 68.5695385 5.69230769zM77.2503077 10.6616923C77.2525679 10.2040799 77.183429 9.74891569 77.0453846 9.31261538 76.9139405 8.89665655 76.7032471 8.51006317 76.4249231 8.17415385 76.1446688 7.84608229 75.7971826 7.58207043 75.406 7.4 74.9665513 7.19386774 74.485257 7.09254262 74 7.104 73.4638324 7.0807318 72.9270967 7.13440537 72.4061538 7.26338462 72.1937156 7.32863225 71.9847285 7.40462758 71.78 7.49107692L71.78 12.7109231C71.8563114 12.8657278 71.9478393 13.0125539 72.0532308 13.1492308 72.1891885 13.3310759 72.3546597 13.4888507 72.5427692 13.616 72.7801092 13.7751016 73.038848 13.8996795 73.3112308 13.986 73.6809317 14.0931898 74.0648735 14.1431022 74.4496923 14.134 75.2478957 14.1725382 76.0176575 13.8329994 76.5273846 13.2175385 77.0591966 12.4781987 77.3150038 11.5758238 77.2503077 10.6673846L77.2503077 10.6616923z"></path>
    <path d="M91.5209231 16.6044615L91.5209231 10.0298462C91.5209231 8.13241026 90.6424103 7.18369231 88.8853846 7.18369231 88.385109 7.16631099 87.8848968 7.21997361 87.3996923 7.34307692 87.1413889 7.41675528 86.8884376 7.508046 86.6426154 7.61630769L86.6426154 16.6044615 83.4378462 16.6044615 83.4378462 5.62969231C83.4947692 5.60123077 83.6826154 5.52153846 84.0070769 5.402 84.3914956 5.25194756 84.7850571 5.12646416 85.1853846 5.02630769 85.7480252 4.88023372 86.3180684 4.76432493 86.8930769 4.67907692 87.5943103 4.57761793 88.3020862 4.52814973 89.0106154 4.53107692 89.8055332 4.52332924 90.5973861 4.63069913 91.3615385 4.84984615 92.0239387 5.04169063 92.6426355 5.36070617 93.1830769 5.78907692 93.6840439 6.20122793 94.0833412 6.72323607 94.35 7.31461538 94.6335104 7.96793434 94.7732824 8.67455974 94.7598462 9.38661538L94.7598462 16.6044615 91.5209231 16.6044615zM97.0652308 13.9916923C97.3185242 13.9075723 97.5485744 13.7652531 97.7369231 13.5761538 98.0037328 13.2813185 98.1985749 12.9286544 98.3061538 12.5458462 98.4627916 12.0620775 98.5920224 11.5698601 98.6932308 11.0715385 98.8184615 10.5023077 98.9323077 10.0070769 99.0404615 9.59153846 99.3876923 7.94646154 100.036615 6.74538462 100.987231 6.01676923 102.15713 5.21941919 103.55863 4.83300567 104.971846 4.91815385L107.419538 4.91815385C107.736774 4.90343658 108.054236 4.94191683 108.358769 5.032 108.572485 5.11380608 108.766476 5.23990012 108.928 5.402L108.928 16.6044615 105.723231 16.6044615 105.723231 7.53092308 104.966154 7.53092308C104.232386 7.46532764 103.508342 7.73527475 102.996615 8.26523077 102.513629 8.90420679 102.191485 9.65001907 102.057385 10.4396923 101.949231 10.8836923 101.824 11.4130769 101.681692 12.0335385 101.539385 12.654 101.357231 13.2744615 101.140923 13.9006154 100.892425 14.7561185 100.387843 15.5149775 99.6950769 16.0750769 98.9178977 16.6136082 98.0087817 16.9304214 97.0652308 16.9915385L97.0652308 13.9916923z"></path>
    <path d="M122.737538,16.5076923 C122.692,16.5076923 122.526923,16.5532308 122.236615,16.6044615 C121.946308,16.6556923 121.559231,16.6955385 121.098154,16.7410769 C120.637077,16.7866154 120.045077,16.8264615 119.390462,16.8663077 C118.735846,16.9061538 118.012923,16.9232308 117.238769,16.9232308 C116.302731,16.9436403 115.367768,16.8480409 114.455231,16.6386154 C113.8389,16.4914806 113.258261,16.222451 112.747538,15.8473846 C112.346355,15.547523 112.040041,15.138445 111.865231,14.6690769 C111.702117,14.1928884 111.621269,13.6924038 111.626154,13.1890769 C111.61459,12.606146 111.715076,12.0264176 111.922154,11.4813846 C112.101695,10.9880871 112.422394,10.5585095 112.844308,10.2461538 C113.361763,9.90237525 113.942147,9.66441806 114.552,9.546 C115.383941,9.38025704 116.231216,9.30392591 117.079385,9.31830769 C117.768154,9.31830769 118.343077,9.31830769 118.787077,9.37523077 C119.231077,9.43215385 119.515692,9.44353846 119.589692,9.45492308 L119.589692,9.10769231 C119.62663,8.47100136 119.352987,7.85583589 118.855385,7.45692308 C118.17947,7.02238812 117.379343,6.82235635 116.578462,6.88769231 C116.170537,6.88290322 115.7635,6.92685556 115.366,7.01861538 C114.826961,7.14360104 114.313046,7.35917553 113.846154,7.65615385 C113.669692,7.77 113.527385,7.86107692 113.424923,7.918 C112.910464,7.59970429 112.598,7.03726899 112.599538,6.43230769 C112.591016,6.11541455 112.705218,5.80747519 112.918308,5.57276923 C113.160131,5.32291517 113.45343,5.12867765 113.777846,5.00353846 C114.175525,4.85112354 114.590346,4.74789634 115.013077,4.69615385 C115.488672,4.63391953 115.967891,4.60349296 116.447538,4.60507692 C117.303501,4.59799727 118.15796,4.6781028 118.997692,4.84415385 C119.711392,4.97966983 120.389564,5.26062657 120.99,5.66953846 C121.552122,6.0663924 121.999762,6.60434547 122.287846,7.22923077 C122.614092,7.99883016 122.769461,8.83005578 122.743231,9.66553846 L122.737538,16.5076923 Z M119.578308,11.47 L119.305077,11.4244615 L118.798462,11.3846154 C118.601128,11.3846154 118.384821,11.3732308 118.149538,11.3504615 L117.426615,11.3504615 C116.963573,11.3393888 116.500925,11.3852712 116.049077,11.4870769 C115.7528,11.5522123 115.47474,11.6824921 115.235077,11.8684615 C115.053277,12.0163752 114.918724,12.2142468 114.848,12.4376923 C114.778972,12.6646279 114.744432,12.900647 114.745538,13.1378462 C114.743884,13.3481145 114.774603,13.5573849 114.836615,13.7583077 C114.90839,13.9702747 115.041044,14.156387 115.218,14.2933846 C115.454378,14.4768026 115.725475,14.6104147 116.014923,14.6861538 C116.454217,14.794596 116.905942,14.8443623 117.358308,14.8341538 C117.839582,14.8389694 118.320657,14.8123486 118.798462,14.7544615 C119.179846,14.6975385 119.441692,14.6576923 119.578308,14.6235385 L119.578308,11.47 Z"></path>
    <path d="M132.704769,7.53092308 L132.704769,16.6044615 L129.494308,16.6044615 L129.494308,7.53092308 L126.426154,7.53092308 C126.031991,7.57349302 125.637937,7.4497065 125.338923,7.18938462 C125.119876,6.91838062 125.010219,6.57519211 125.031538,6.22738462 C125.025347,5.94244171 125.071657,5.65879299 125.168154,5.39061538 C125.259231,5.15153846 125.321846,4.99784615 125.350308,4.91815385 L135.750154,4.91815385 C136.145429,4.8742517 136.540727,5.00049863 136.837385,5.26538462 C137.05743,5.5358493 137.167215,5.87943766 137.144769,6.22738462 C137.150446,6.51229119 137.104151,6.79584706 137.008154,7.06415385 L136.826,7.53092308 L132.704769,7.53092308 Z"></path>
    <path d="M139.461538,6.29569231 C139.414829,5.88087106 139.590014,5.47210556 139.922615,5.21984615 C140.289059,5.00407087 140.710244,4.89926899 141.135077,4.91815385 C141.462987,4.91590519 141.789921,4.95414304 142.108462,5.032 C142.300969,5.0770028 142.490976,5.13210463 142.677692,5.19707692 L142.677692,9.04507692 C142.752512,8.97649681 142.832434,8.91370069 142.916769,8.85723077 C143.097273,8.74172835 143.287781,8.64266407 143.486,8.56123077 C143.762016,8.43993947 144.050149,8.34834744 144.345538,8.288 C144.728796,8.20501718 145.120392,8.16681268 145.512462,8.17415385 C146.105886,8.1727433 146.6964,8.25710239 147.265692,8.42461538 C147.790825,8.57741426 148.283015,8.82640476 148.717231,9.15892308 C149.126592,9.47610885 149.462525,9.87806323 149.702,10.3372308 C149.952209,10.8306326 150.077314,11.3779686 150.066308,11.9310769 C150.068146,12.5644102 149.956323,13.1929344 149.736154,13.7867692 C149.493713,14.397505 149.107004,14.9404602 148.609077,15.3692308 C148.050403,15.866915 147.395572,16.244702 146.685077,16.4792308 C145.75092,16.7866788 144.770826,16.9310935 143.787692,16.9061538 C143.281077,16.9061538 142.791538,16.9061538 142.307692,16.872 C141.823846,16.8378462 141.391231,16.8150769 140.992769,16.7809231 L139.985231,16.6784615 L139.416,16.6101538 L139.461538,6.29569231 Z M146.861538,12.432 C146.883636,11.9131046 146.675282,11.4109697 146.292308,11.0601538 C145.850421,10.700709 145.289857,10.5199473 144.721231,10.5535385 C144.172792,10.509138 143.626827,10.6648391 143.184308,10.9918462 C142.847717,11.2837854 142.663181,11.7136694 142.683385,12.1587692 L142.683385,14.3332308 C142.82721,14.3793115 142.976512,14.4061093 143.127385,14.4129231 C143.349385,14.4129231 143.656769,14.4470769 144.055231,14.4470769 C144.809763,14.5139635 145.563691,14.3123785 146.184154,13.8778462 C146.600615,13.5152651 146.830776,12.9838021 146.810308,12.432 L146.861538,12.432 Z M152.474154,6.29569231 C152.428438,5.88227325 152.600909,5.47481228 152.929538,5.21984615 C153.297751,5.00330353 153.720979,4.89848548 154.147692,4.91815385 C154.475552,4.91681327 154.802376,4.95503826 155.121077,5.032 C155.313728,5.07645543 155.503763,5.13156577 155.690308,5.19707692 L155.690308,16.5816923 L152.485538,16.5816923 L152.474154,6.29569231 Z"></path>
  </g>
</svg>
