<?xml version="1.0" encoding="UTF-8" standalone="no"?>
<svg
  width="150.42435mm"
  height="52.070034mm"
  viewBox="0 0 150.42435 52.070034"
  version="1.1"
  xmlns="http://www.w3.org/2000/svg">
  <g transform="translate(-59.374659,-42.649443)">
    <g
      aria-label="Займ"
      style="font-size:70.5556px;line-height:1.25;stroke-width:0.264583">
      <path
        d="m 75.955226,94.719478 c 9.242784,0 16.651122,-5.080004 16.651122,-13.97001 0,-6.279448 -3.951114,-10.301118 -9.242784,-11.430007 v -0.282223 c 4.445003,-1.552223 6.914449,-5.503337 6.914449,-10.442229 0,-7.408338 -5.997226,-11.853341 -14.746121,-11.853341 -5.644448,0 -10.795007,2.257779 -14.111121,5.573892 l 3.104447,3.880558 c 2.822224,-2.610557 6.561671,-4.233336 10.865563,-4.233336 5.221114,0 9.101673,2.540002 9.101673,7.408338 0,5.221115 -3.386669,7.902228 -11.500564,7.902228 h -3.880558 v 4.586114 h 5.29167 c 7.902228,0 12.417786,2.681113 12.417786,8.607784 0,5.856115 -4.868336,9.101673 -10.865562,9.101673 -5.362226,0 -9.242784,-1.411112 -13.264454,-5.503337 l -3.316113,3.951113 c 4.65667,4.868337 9.94834,6.702783 16.580567,6.702783 z"
        style="font-family:'Source Sans Variable';-inkscape-font-specification:'Source Sans Variable'"
      />
      <path
        d="m 109.18684,94.719478 c 4.23334,0 8.04334,-2.187224 11.35945,-4.938893 h 0.14111 l 0.49389,4.092225 h 4.79778 V 72.847241 c 0,-8.537228 -3.52778,-14.111121 -11.92389,-14.111121 -5.50334,0 -10.30112,2.328335 -13.47612,4.515559 l 2.32833,3.810002 c 2.68112,-1.693334 6.2089,-3.52778 10.23056,-3.52778 5.5739,0 7.05557,4.233336 7.05557,8.678339 -14.60501,1.552224 -21.09613,5.29167 -21.09613,12.770564 0,6.208893 4.30389,9.736674 10.08945,9.736674 z m 1.62278,-4.65667 c -3.38667,0 -5.99723,-1.552223 -5.99723,-5.432782 0,-4.445003 3.88056,-7.267227 15.38113,-8.607783 v 9.525006 c -3.31612,2.89278 -6.06779,4.515559 -9.3839,4.515559 z"
        style="font-family:'Source Sans Variable';-inkscape-font-specification:'Source Sans Variable'"
        />
      <path
        d="m 136.84462,93.87281 h 5.36222 l 12.98224,-19.543902 c 1.27,-2.046112 3.24555,-5.221114 4.51555,-7.337782 h 0.28223 c -0.28223,4.445003 -0.56445,9.031117 -0.56445,12.629453 V 93.87281 h 5.64445 V 59.582787 h -5.36223 L 146.7224,79.197245 c -1.27,2.116668 -3.24555,5.221115 -4.51556,7.337783 h -0.28222 c 0.21167,-4.445003 0.56445,-9.031118 0.56445,-12.629453 V 59.582787 h -5.64445 z m 14.25223,-40.42836 c 7.97278,0 10.79501,-5.29167 11.07723,-10.795007 h -4.79778 c -0.14111,4.021669 -1.55222,7.408338 -6.27945,7.408338 -4.65667,0 -6.13834,-3.386669 -6.27945,-7.408338 h -4.72722 c 0.28222,5.503337 3.10444,10.795007 11.00667,10.795007 z"
        style="font-family:'Source Sans Variable';-inkscape-font-specification:'Source Sans Variable'"
      />
      <path
        d="m 176.63788,93.87281 h 5.29167 V 78.491689 c 0,-3.033891 -0.28222,-8.325561 -0.635,-11.923897 h 0.28222 c 0.98778,2.89278 2.04611,5.856115 3.03389,8.466672 l 6.49112,15.663344 h 4.37444 l 6.27945,-15.663344 c 0.98778,-2.610557 2.11667,-5.573892 3.10445,-8.466672 h 0.28222 c -0.35278,3.598336 -0.635,8.890006 -0.635,11.923897 V 93.87281 h 5.29167 V 59.653343 h -7.05556 l -6.35,15.875011 c -0.91723,2.610557 -1.905,5.362225 -2.89278,8.537228 h -0.28222 c -0.91723,-3.175003 -1.90501,-5.926671 -2.89278,-8.537228 l -6.63223,-15.875011 h -7.05556 z"
        style="font-family:'Source Sans Variable';-inkscape-font-specification:'Source Sans Variable'"
        />
    </g>
  </g>
</svg>
