<?xml version="1.0" encoding="utf-8"?>
<svg width="174" height="33" viewBox="0 0 174 33" fill="none" xmlns="http://www.w3.org/2000/svg">
  <path fill-rule="evenodd" clip-rule="evenodd" d="M11.4075 22.528C11.72 23.508 12.104 24.178 12.5715 24.5385C13.098 24.966 13.754 25.1795 14.5425 25.1795C15.4375 25.1795 16.1555 24.925 16.693 24.4095C16.907 24.1955 17.087 23.929 17.2305 23.609C17.371 23.2955 17.574 22.715 17.839 21.8685L21.294 10.369L23.1765 21.88C23.3455 22.9475 23.593 23.6995 23.9275 24.141C24.4395 24.833 25.1765 25.179 26.1305 25.179C26.7975 25.179 27.4015 24.9655 27.9395 24.538C28.5955 23.9855 28.9235 23.2715 28.9235 22.3865C28.9235 22.085 28.8675 21.603 28.746 20.9385L25.611 2.936C25.4815 2.148 25.0845 1.474 24.4285 0.91C23.6995 0.317 22.863 0.0185 21.92 0.0185C21.095 0.0185 20.369 0.2505 19.7385 0.7155C19.0205 1.2385 18.512 1.979 18.214 2.9365L14.435 14.992L10.3165 2.398C10.089 1.695 9.691 1.1315 9.1165 0.715C8.4715 0.2395 7.706 0 6.8235 0C5.775 0 4.884 0.317 4.155 0.95C3.5945 1.4365 3.2295 2.188 3.0615 3.2045L0.1615 20.9885C0.0545 21.622 0 22.082 0 22.3695C0 23.2905 0.3345 24.0125 1.002 24.5575C1.525 24.971 2.118 25.18 2.7735 25.18C3.742 25.18 4.471 24.834 4.961 24.142C5.282 23.6925 5.525 22.933 5.6945 21.881L7.521 10.37L11.4075 22.528ZM31.936 8.8115C30.334 10.531 29.535 12.779 29.535 15.559C29.535 18.2515 30.3345 20.48 31.936 22.2415C32.772 23.162 33.7745 23.8855 34.9425 24.3975C36.1135 24.924 37.3215 25.1795 38.5615 25.1795C39.694 25.1795 40.813 24.951 41.9105 24.5015C43.1855 23.986 44.2745 23.2355 45.171 22.241C46.77 20.4795 47.572 18.2365 47.572 15.525C47.572 12.807 46.77 10.5645 45.171 8.8105C44.346 7.912 43.351 7.202 42.18 6.672C41.009 6.1385 39.8405 5.871 38.6695 5.871C36.0065 5.872 33.76 6.8515 31.936 8.8115ZM42.2715 15.545C42.2715 14.0745 41.8515 12.9075 41.0155 12.0345C40.298 11.2715 39.4395 10.8875 38.434 10.888C37.384 10.888 36.496 11.393 35.767 12.41C35.17 13.2345 34.872 14.2695 34.872 15.5255C34.872 16.778 35.17 17.8275 35.767 18.6605C36.485 19.6625 37.3845 20.1635 38.474 20.1635C39.4395 20.1635 40.2865 19.781 41.0155 19.0215C41.852 18.1595 42.2715 16.9995 42.2715 15.545ZM54.4495 6.57101C53.993 6.17701 53.4325 5.98201 52.766 5.98201C51.963 5.98201 51.3005 6.26901 50.777 6.84001C50.2735 7.38901 50.0255 8.15901 50.0255 9.15001V21.471C50.0255 22.495 50.1435 23.253 50.383 23.732C50.5855 24.123 50.904 24.44 51.339 24.698C51.7735 24.948 52.235 25.07 52.711 25.07C53.1895 25.07 53.6445 24.948 54.0795 24.698C54.5145 24.44 54.836 24.1235 55.039 23.732C55.278 23.2395 55.4 22.4875 55.4 21.471V13.702C55.4 12.9035 55.6425 12.196 56.133 11.585C56.715 10.87 57.485 10.5125 58.4395 10.5125C59.3605 10.5125 60.112 10.845 60.7005 11.5145C61.2125 12.1 61.4705 12.9075 61.4705 13.935V21.471C61.4705 22.495 61.588 23.253 61.825 23.732C62.0305 24.123 62.349 24.44 62.787 24.698C63.222 24.948 63.677 25.07 64.153 25.07C64.6345 25.07 65.0915 24.946 65.535 24.6875C65.9785 24.4305 66.2925 24.1155 66.484 23.732C66.723 23.253 66.841 22.4945 66.841 21.471V12.6605C66.841 11.54 66.7415 10.6315 66.539 9.94151C66.2885 9.05451 65.736 8.24351 64.889 7.50351C63.6615 6.41701 62.108 5.87201 60.233 5.87201C59.1575 5.87201 58.1965 6.04851 57.349 6.39101C56.7265 6.65551 56.0305 7.14601 55.253 7.86101C55.0135 7.25301 54.7475 6.82201 54.4495 6.57101ZM87.2215 15.2055C87.2215 16.612 86.4405 17.3215 84.8755 17.3215H74.849C75.2405 18.391 75.787 19.192 76.4865 19.711C77.1865 20.225 78.061 20.487 79.1115 20.487C79.8735 20.487 80.643 20.333 81.424 20.0165C81.6265 19.935 82.3345 19.593 83.5535 19.003C83.922 18.826 84.3345 18.7275 84.7885 18.7275C85.4095 18.7275 85.933 19.018 86.364 19.5715C86.725 20.027 86.9025 20.4835 86.9025 20.94C86.9025 21.957 86.1795 22.8715 84.736 23.696C83.004 24.6835 81.0375 25.1805 78.842 25.1805C75.557 25.1805 72.974 24.0355 71.088 21.7585C69.7255 20.115 69.0475 18.1275 69.0475 15.817C69.0475 12.6725 70.053 10.1665 72.0715 8.29151C73.817 6.68201 75.88 5.87201 78.2705 5.87201C80.359 5.87201 82.215 6.51651 83.839 7.80601C85.402 9.06101 86.44 10.7635 86.956 12.914C87.1365 13.6735 87.2215 14.4395 87.2215 15.2055ZM74.6535 13.644C74.996 12.609 75.3975 11.85 75.851 11.371C76.558 10.642 77.409 10.281 78.411 10.281C79.5825 10.281 80.4885 10.7495 81.137 11.6955C81.4345 12.1225 81.697 12.775 81.9215 13.644H74.6535ZM92.0065 6.53551C92.397 6.89601 92.7875 7.55101 93.1705 8.50501L96.3225 16.479L99.4735 8.56001C99.856 7.58001 100.251 6.91301 100.659 6.55651C101.112 6.15851 101.676 5.96251 102.36 5.96251C103.038 5.96251 103.634 6.17701 104.147 6.60801C104.779 7.14551 105.098 7.80101 105.098 8.57901C105.098 9.06551 104.913 9.74951 104.541 10.62L96.342 30.172C96.0545 30.8625 95.811 31.3395 95.606 31.626C95.0935 32.3245 94.394 32.6645 93.5095 32.6645C92.842 32.6645 92.2495 32.4475 91.7375 32.0055C91.1265 31.482 90.8235 30.8475 90.8235 30.1055C90.8235 29.618 91.008 28.944 91.38 28.0825L93.4945 23.121L88.1755 10.5455C87.8145 9.68751 87.6345 9.02051 87.6345 8.54151C87.6345 7.66901 88.024 6.96551 88.7985 6.42801C89.254 6.11551 89.7665 5.96301 90.3415 5.96301C91.008 5.96301 91.564 6.15601 92.0065 6.53551Z" fill="#99CC33"/>
  <path fill-rule="evenodd" clip-rule="evenodd" d="M129.321 24.142C129.843 24.834 130.569 25.18 131.526 25.18C132.196 25.18 132.803 24.9665 133.335 24.54C133.991 23.987 134.325 23.2735 134.325 22.3885C134.325 22.087 134.267 21.6045 134.142 20.9405L131.007 2.93648C130.881 2.14848 130.483 1.47448 129.827 0.910477C129.099 0.317977 128.259 0.0189766 127.323 0.0189766C126.497 0.0189766 125.762 0.251477 125.128 0.715977C124.414 1.23898 123.909 1.97948 123.608 2.93698L119.832 14.9925L115.713 2.39898C115.484 1.69598 115.083 1.13248 114.509 0.715977C113.868 0.240477 113.108 0.000976562 112.218 0.000976562C111.167 0.000976562 110.28 0.317477 109.553 0.950977C108.991 1.43698 108.627 2.18898 108.457 3.20498L105.557 20.989C105.451 21.6225 105.397 22.0825 105.397 22.37C105.397 23.291 105.731 24.013 106.401 24.558C106.925 24.9715 107.514 25.1805 108.172 25.1805C109.142 25.1805 109.868 24.8345 110.361 24.1425C110.679 23.693 110.925 22.9335 111.091 21.8815L112.921 10.3705L116.807 22.529C117.117 23.5085 117.504 24.1785 117.974 24.5395C118.497 24.967 119.153 25.1805 119.942 25.1805C120.834 25.1805 121.548 24.926 122.086 24.4105C122.307 24.1965 122.483 23.93 122.63 23.61C122.771 23.2965 122.97 22.716 123.234 21.8695L126.693 10.37L128.576 21.881C128.739 22.948 128.996 23.7 129.321 24.142ZM171.078 25.07C171.55 25.07 172.011 24.946 172.453 24.6875C172.895 24.431 173.216 24.116 173.406 23.7315C173.642 23.2525 173.761 22.4945 173.761 21.4705V12.66C173.761 11.5395 173.661 10.6305 173.455 9.94098C173.203 9.05398 172.652 8.24348 171.805 7.50298C170.574 6.41648 169.028 5.87148 167.148 5.87148C166.073 5.87148 165.112 6.04798 164.265 6.39048C163.646 6.65498 162.949 7.14548 162.169 7.86048C161.932 7.25298 161.664 6.82198 161.369 6.57098C160.911 6.17698 160.353 5.98198 159.682 5.98198C158.88 5.98198 158.22 6.26898 157.69 6.83998C157.195 7.38898 156.945 8.15898 156.945 9.14998V21.471C156.945 22.4945 157.057 23.253 157.299 23.732C157.499 24.1235 157.82 24.44 158.258 24.698C158.697 24.948 159.149 25.07 159.627 25.07C160.106 25.07 160.564 24.948 160.995 24.698C161.434 24.44 161.753 24.123 161.954 23.732C162.198 23.2395 162.316 22.4875 162.316 21.471V13.702C162.316 12.9035 162.556 12.196 163.049 11.585C163.631 10.87 164.401 10.5125 165.365 10.5125C166.279 10.5125 167.031 10.845 167.613 11.5145C168.129 12.1 168.39 12.9075 168.39 13.935V21.471C168.39 22.4945 168.502 23.253 168.751 23.732C168.947 24.1235 169.266 24.44 169.704 24.698C170.135 24.948 170.593 25.07 171.078 25.07ZM148.378 22.937C148.916 24.3655 149.815 25.07 151.068 25.07C151.825 25.07 152.448 24.801 152.948 24.27C153.501 23.682 153.773 22.893 153.773 21.8985V8.73747C153.773 7.92747 153.501 7.25747 152.948 6.73347C152.411 6.23097 151.789 5.98247 151.104 5.98247C150.478 5.98247 149.928 6.15947 149.436 6.51647C149.073 6.79347 148.735 7.28297 148.44 7.98647C147.836 7.37747 147.343 6.94697 146.967 6.69647C146.077 6.14797 145.055 5.87197 143.869 5.87197C141.755 5.87197 139.874 6.68597 138.223 8.30997C136.345 10.1735 135.412 12.547 135.412 15.4375C135.412 18.683 136.473 21.2425 138.603 23.1215C140.15 24.498 141.928 25.18 143.917 25.18C145.044 25.18 145.991 24.948 146.772 24.484C147.236 24.196 147.767 23.6815 148.378 22.937ZM147.107 12.0525C146.393 11.2745 145.509 10.8875 144.463 10.8875C143.372 10.8875 142.478 11.319 141.791 12.1775C141.122 13.0395 140.783 14.155 140.783 15.5255C140.783 16.8885 141.122 18.0005 141.791 18.855C142.478 19.7315 143.395 20.163 144.529 20.163C145.524 20.163 146.371 19.777 147.072 19.0025C147.865 18.127 148.257 16.966 148.257 15.5075C148.257 14.027 147.873 12.874 147.107 12.0525Z" fill="#4D4D4D"/>
</svg>
