<svg xmlns="http://www.w3.org/2000/svg" viewBox="0 0 257.91 48">
  <defs>
    <style>.cls-1,.cls-3{fill:#3f3f3f;}.cls-1,.cls-2{fill-rule:evenodd;}.cls-2{fill:#3c6;}</style>
  </defs>
  <path class="cls-1"
        d="M116,26.5s3.93,2.63,7.53,5.17c3.28,2.3,6.26,4.54,6.26,4.54A96.61,96.61,0,0,1,143,20.05,152.65,152.65,0,0,1,163.22,4.36a204.57,204.57,0,0,0-18.6,21.41A218,218,0,0,0,130,49s-3.19-6.64-6.81-12.43A103.76,103.76,0,0,0,116,26.5Z"
        transform="translate(-12.28 -1)"/>
  <path class="cls-2"
        d="M142.78,35.93s-1-.66-2.51-1.82c1.42-2.15,2.8-4.31,4.3-6.42.64-.9,1.37-1.78,2-2.65,1-1.3,1.95-2.58,2.92-3.83a34.1,34.1,0,0,0,4,2.66Zm-8.88-7c-2.76-2.49-6.16-6.69-8.85-9.14a64.89,64.89,0,0,0-8.46-6.62L127.14,1a44.46,44.46,0,0,1,6.18,4.54c3.49,3,7.65,7.86,11.41,11.53l-.41.39A117.21,117.21,0,0,0,133.9,28.92Zm5-15.55c-1.68-1.56-5-.73-7.4,1.86s-3,6-1.31,7.52,5,.73,7.4-1.86S140.59,14.93,138.9,13.37ZM124.14,19.6c2.81,2.55,6.38,7,9.19,9.44l.28.24-1.14,1.45-1.23-1.06c-2.81-2.44-6.38-6.89-9.19-9.43A76.82,76.82,0,0,0,115.58,15l-.72.83a64.89,64.89,0,0,1,8.46,6.62c2.64,2.39,5.94,6.45,8.65,9l-1.12,1.48-.43-.36c-2.81-2.45-6.38-6.89-9.19-9.44-2.13-1.94-4-3.45-5.47-4.54l-.9,1a64.89,64.89,0,0,1,8.46,6.62c2.13,1.94,4.7,5,7,7.38l-1.15,1.57c-2.57-2.51-5.56-6.12-8-8.31a64.18,64.18,0,0,0-8.45-6.62l2-2.32c-1.29-.93-2-1.4-2-1.4l1.84-2.14c-.66-.45-1-.68-1-.68L124.14,1.45l1,.62L115.68,13A63.8,63.8,0,0,1,124.14,19.6Zm16,22L139,42.92s-1.15-.79-2.94-2.15l.94-1.52C138.31,40.29,139.4,41.1,140.13,41.62ZM139,39.2s-.5-.34-1.35-1l.94-1.48c.63.47,1.16.86,1.57,1.15Zm2-4.11-1.15,1.3-.69-.49c.32-.48.63-1,1-1.46Z"
        transform="translate(-12.28 -1)"/>
  <path class="cls-3" d="M25.9,12.8h4.29v21H25.9V25.1H16.57v8.7H12.28v-21h4.29V21H25.9Z"
        transform="translate(-12.28 -1)"/>
  <path class="cls-3" d="M49.9,33.8l-1.77-4.95H39.64l-1.8,4.95H33.31l7.86-21H46.6l7.86,21Zm-8.79-9h5.52l-2.76-7.62Z"
        transform="translate(-12.28 -1)"/>
  <path class="cls-3"
        d="M76.42,29.72h3V38H75.13V33.8H60.91V38H56.62V29.72h3a5.38,5.38,0,0,0,1-2.79L62.86,12.8H76.42ZM64.81,27.35a13.22,13.22,0,0,1-.57,2.37h7.89V16.88H66.49Z"
        transform="translate(-12.28 -1)"/>
  <path class="cls-3"
        d="M84.29,15.56a11.32,11.32,0,0,1,15.59,0A10.49,10.49,0,0,1,103,23.3,10.46,10.46,0,0,1,99.88,31a11.27,11.27,0,0,1-15.59,0,10.48,10.48,0,0,1-3.13-7.74A10.51,10.51,0,0,1,84.29,15.56ZM96.8,18.45a6.77,6.77,0,0,0-9.45,0,6.63,6.63,0,0,0-1.87,4.85,6.69,6.69,0,0,0,1.87,4.87,6.8,6.8,0,0,0,9.45,0,6.7,6.7,0,0,0,1.88-4.87A6.64,6.64,0,0,0,96.8,18.45Z"
        transform="translate(-12.28 -1)"/>
  <path class="cls-3"
        d="M193.27,29.72h3V38H192V33.8H177.76V38h-4.29V29.72h3a5.38,5.38,0,0,0,1-2.79l2.25-14.13h13.56Zm-11.61-2.37a13.22,13.22,0,0,1-.57,2.37H189V16.88h-5.64Z"
        transform="translate(-12.28 -1)"/>
  <path class="cls-3" d="M213.49,16.88h-9.81v4.24h9V25.2h-9v4.52h9.81V33.8h-14.1v-21h14.1Z"
        transform="translate(-12.28 -1)"/>
  <path class="cls-3" d="M230.53,12.8h4.29v21h-4.29V25.1H221.2v8.7h-4.29v-21h4.29V21h9.33Z"
        transform="translate(-12.28 -1)"/>
  <path class="cls-3" d="M253.48,16.88h-9.81v4.24h9V25.2h-9v4.52h9.81V33.8h-14.1v-21h14.1Z"
        transform="translate(-12.28 -1)"/>
  <path class="cls-3" d="M270.19,12.8v4.08h-9V33.8H256.9v-21Z" transform="translate(-12.28 -1)"/>
</svg>
