<svg width="225" height="48" viewBox="0 0 225 48" fill="none" xmlns="http://www.w3.org/2000/svg">
<g clip-path="url(#clip0)">
<path d="M116.535 47.5481H111.754V29.2218H116.535V40.8201L125.325 29.2218H130.106V47.5481H125.325V35.9498L116.535 47.5481Z" fill="#000000"/>
<path d="M150.617 29.2218V47.5481H145.836V41.2218C144.448 41.9247 142.906 42.2762 141.159 42.2762C136.429 42.2762 134.373 39.8159 134.373 35.046V29.2218H139.514V34.5439C139.514 36.8034 140.49 37.908 142.546 37.908C143.883 37.908 144.962 37.6569 145.836 37.1548V29.2218H150.617Z" fill="#000000"/>
<path d="M169.02 47.5481V40.5188H160.795V47.5481H155.963V29.2218H160.795V36.1506H169.02V29.2218H173.8V47.5481H169.02Z" fill="#000000"/>
<path d="M197.241 47.5481V29.2218H202.022V47.5481H197.241ZM183.927 37.9582V43.4812H185.829C188.245 43.4812 189.479 42.5774 189.479 40.7699C189.479 38.9121 188.245 38.0084 185.881 38.0084H183.927V37.9582ZM179.146 47.5481V29.2218H183.927V34.2427H186.24C192.152 34.2427 194.517 36.9038 194.517 40.6193C194.517 44.5858 191.844 47.5983 185.881 47.5983H179.146V47.5481Z" fill="#000000"/>
<path d="M211.018 36.6527H220.219C220.271 34.3933 218.574 32.636 215.901 32.636C213.228 32.6862 211.532 33.9916 211.018 36.6527ZM223.458 45.6904C221.607 47.1967 219.243 47.9498 216.261 47.9498C213.228 47.9498 210.812 47.046 208.91 45.2887C207.06 43.5314 206.134 41.2218 206.134 38.3096C206.134 35.5983 207.06 33.2887 208.859 31.4812C210.658 29.6234 213.074 28.7197 216.107 28.7197C218.574 28.7197 220.682 29.523 222.43 31.1297C224.126 32.7364 225 34.7448 225 37.2552C225 38.2594 224.897 39.113 224.692 39.7657H211.121C211.48 42.477 213.742 44.0335 216.775 44.0335C218.883 44.0335 220.682 43.4812 222.07 42.3766L223.458 45.6904Z" fill="#000000"/>
<path d="M61.9431 47.5481V40.5188H53.7183V47.5481H48.8862V29.2218H53.7183V36.1506H61.9431V29.2218H66.7238V47.5481H61.9431Z" fill="#000000"/>
<path d="M80.5519 42.1757V40.318C79.7808 39.7155 78.6499 39.4142 77.2619 39.4142C75.5656 39.4142 74.2805 40.2176 74.2805 41.6736C74.2805 43.0293 75.4114 43.8326 76.9535 43.8326C78.5471 43.8326 79.7294 43.2803 80.5519 42.1757ZM70.8877 30.5272C72.9439 29.3222 75.1543 28.7699 77.519 28.7699C82.8651 28.7699 85.0241 31.3305 85.0241 36.4017V47.5983H80.8603V45.4895C79.7294 47.0962 77.8788 47.8494 75.3086 47.8494C71.813 47.8494 69.397 45.6904 69.397 42.2259C69.397 38.3598 72.2243 36.251 76.2338 36.251C77.9302 36.251 79.3696 36.6527 80.5005 37.4561C80.6033 34.2427 79.678 32.7364 77.0049 32.7364C75.617 32.7364 73.972 33.1381 72.07 33.9916L70.8877 30.5272Z" fill="#000000"/>
<path d="M92.1692 29.2218L91.8608 34.9456C91.5523 39.364 90.4214 42.0753 89.2905 42.8787C88.8793 43.1799 88.468 43.3306 88.0054 43.3808V47.9498C93.2487 47.8996 95.4077 45.8912 96.4872 35.8996L96.59 33.9414H101.576V47.5983H106.357V29.2218H92.1692Z" fill="#000000"/>
<path d="M2.93055 33.2385H3.03336C4.21568 33.2385 5.24378 33.9414 5.70642 35.046C6.99155 38.1088 10.1273 40.2678 13.777 40.1171C17.9922 39.9163 21.4364 36.5523 21.642 32.4351C21.8476 27.8159 18.095 24 13.3658 24C9.87023 24 6.94014 26.1088 5.70642 29.0711C5.24378 30.1757 4.16427 30.8786 2.98195 30.8786H2.93055C0.925752 30.8786 -0.51359 28.9707 0.103271 27.1129C2.15947 20.9874 7.96824 16.4686 14.8565 16.1673L9.15056 6.37655C8.12246 4.61922 8.73932 2.41002 10.4871 1.40584C12.2863 0.401651 14.5481 1.00416 15.5762 2.76148L22.3103 14.159L19.5344 4.06692C19.0717 2.35981 20.0998 0.552279 21.8476 0.100396C23.5954 -0.351487 25.446 0.652697 25.9086 2.35981L29.0443 13.8075V7.17989C29.0443 5.82424 30.1752 4.76985 31.5118 4.76985C32.8997 4.76985 33.9792 5.87445 33.9792 7.17989V30.9288C33.9792 30.9791 33.9792 31.0293 33.9792 31.0795C33.9792 40.4184 26.217 48.0502 16.6043 48.0502C16.2445 48.0502 15.936 48.0502 15.5762 48.0502C8.37949 48.0502 2.21088 43.4811 0.103271 37.1046C-0.462185 35.1966 0.925752 33.2385 2.93055 33.2385Z" fill="#F97C13"/>
<path d="M56.6998 20.0837C59.6813 20.0837 61.8403 17.9749 61.8403 14.8117C61.8403 11.749 59.6813 9.58997 56.6998 9.58997C53.8211 9.58997 51.6107 11.6988 51.6107 14.8117C51.6107 17.8745 53.7697 20.0837 56.6998 20.0837ZM46.4702 14.8117C46.4702 12 47.3955 9.69039 49.2461 7.93307C51.1481 6.07533 53.6155 5.22177 56.6998 5.22177C59.7327 5.22177 62.2002 6.12554 64.1022 7.93307C66.0041 9.7406 66.9294 12 66.9294 14.8117C66.9294 17.6234 65.9527 19.9331 64.1022 21.7406C62.2002 23.5481 59.7841 24.4519 56.6998 24.4519C53.6669 24.4519 51.1481 23.5481 49.2461 21.7406C47.3955 19.8829 46.4702 17.6234 46.4702 14.8117Z" fill="#000000"/>
<path d="M68.8828 10.2929V5.62344H86.0007V10.2929H79.8321V24H75.0514V10.2929H68.8828Z" fill="#000000"/>
<path d="M116.535 24H111.754V5.62344H116.535V17.272L125.325 5.62344H130.106V24H125.325V12.3515L116.535 24Z" fill="#000000"/>
<path d="M150.617 5.62344V23.9498H145.836V17.6737C144.448 18.3766 142.906 18.728 141.159 18.728C136.429 18.728 134.373 16.2678 134.373 11.4979V5.62344H139.514V10.9456C139.514 13.205 140.542 14.3096 142.546 14.3096C143.883 14.3096 144.962 14.0586 145.836 13.5565V5.62344H150.617Z" fill="#000000"/>
<path d="M169.02 24V16.9707H160.795V24H155.963V5.62344H160.795V12.5523H169.02V5.62344H173.8V24H169.02Z" fill="#000000"/>
<path d="M197.241 24V5.62344H202.022V23.9498H197.241V24ZM183.927 14.4101V19.9331H185.829C188.245 19.9331 189.479 19.0293 189.479 17.2218C189.479 15.364 188.245 14.4603 185.881 14.4603H183.927V14.4101ZM179.146 24V5.62344H183.927V10.6444H186.24C192.152 10.6444 194.517 13.3055 194.517 17.0209C194.517 20.9875 191.844 24 185.881 24H179.146Z" fill="#000000"/>
<path d="M211.018 13.1046H220.219C220.271 10.8452 218.574 9.08786 215.901 9.08786C213.228 9.08786 211.532 10.4435 211.018 13.1046ZM223.458 22.1423C221.607 23.6485 219.243 24.4017 216.261 24.4017C213.228 24.4017 210.812 23.4979 208.91 21.7406C207.06 19.9833 206.134 17.6736 206.134 14.7615C206.134 12.0502 207.06 9.74058 208.859 7.93305C210.658 6.0753 213.074 5.17154 216.055 5.17154C218.523 5.17154 220.631 5.97489 222.378 7.58158C224.075 9.18828 224.949 11.1966 224.949 13.7071C224.949 14.7113 224.846 15.5648 224.64 16.2176H211.069C211.429 18.9289 213.691 20.4853 216.724 20.4853C218.831 20.4853 220.631 19.933 222.018 18.8284L223.458 22.1423Z" fill="#000000"/>
<path d="M91.8093 5.62344L91.5009 11.3473C91.1925 15.7657 90.0615 18.477 88.9306 19.2803C88.5194 19.5816 88.1082 19.7322 87.6455 19.7824V24.3515C92.8888 24.3013 95.0478 22.2929 96.1274 12.3013L96.2302 10.3431H101.216V24H105.997V5.62344H91.8093Z" fill="#000000"/>
</g>
<defs>
<clipPath id="clip0">
<rect width="225" height="48"/>
</clipPath>
</defs>
</svg>

