<svg width="144" height="34" xmlns="http://www.w3.org/2000/svg">
  <path fill="#434b6d" d="M0 1A52.79 52.79 0 0110.78-.08q13.06 0 13.06 12.34 0 13.63-12.15 13.63a12.19 12.19 0 01-5.22-1.24v7.57H0V1zm6.47 18.11a10.55 10.55 0 005.2 1.34q5.78 0 5.78-8.24 0-7-6.39-7a25.28 25.28 0 00-4.59.34v13.56zM43.43 23.56a12.61 12.61 0 01-7.37 2.33q-9.39 0-9.4-8.09 0-7.74 11.13-7.74a28 28 0 015.22.5v-2q0-3.49-5-3.49a39.94 39.94 0 00-9.32 1.24V1.15a40.08 40.08 0 019.38-1.23q11.42 0 11.42 8.56V27.6l-6.05-4zm-5.63-9.05q-4.66 0-4.66 3.22 0 3.46 3.9 3.46a9.88 9.88 0 006-2V15a26.07 26.07 0 00-5.22-.5zM50.68 0h6.85L64 18.7 70.32 0h6.73l-9.82 25.95v6.43h-6.47l-.02-6.43L50.68 0zM85 1.15A52.81 52.81 0 0195.81.09q13.05 0 13.05 12.34 0 13.63-12.15 13.63a12.23 12.23 0 01-5.22-1.23v7.56H85V1.15zm6.47 18.13a10.55 10.55 0 005.2 1.34q5.79 0 5.78-8.24 0-7-6.39-7a25.38 25.38 0 00-4.59.34v13.56zM114.56 20.64a11.39 11.39 0 00-2.3-.23h-.54a11.4 11.4 0 00-2.3.23v5.19a11.18 11.18 0 002.3.23h.55a11.09 11.09 0 002.29-.23v-5.19zM143.24 20.64a11.39 11.39 0 00-2.3-.23h-.54a11.39 11.39 0 00-2.3.23v5.19a11.17 11.17 0 002.3.23h.6a11.08 11.08 0 002.29-.23v-5.19zM128.48 10.35h-4.15q-3.05 0-3-2.6t5.2-2.75A24.66 24.66 0 01135 6.47v-5.4a27.65 27.65 0 00-8.3-1.23q-11.39 0-11.39 8.16 0 7.79 7.81 7.79h4.64q2.81 0 2.81 2.6t-4.17 2.72a26.73 26.73 0 01-8.89-1.4v5.4a29.84 29.84 0 008.65 1.2Q137 26.3 137 18.14q0-7.79-8.54-7.79z"/>
</svg>
