<svg width="307" height="63" viewBox="0 0 307 63" fill="none" xmlns="http://www.w3.org/2000/svg">
<path fill-rule="evenodd" clip-rule="evenodd" d="M306.907 45.3318H302.648L300.298 36.7752C299.718 34.9417 298.56 34.0302 296.832 34.0302L291.178 33.9874V45.3211H287.24V17.8714C289.493 17.6355 292.69 17.5176 296.832 17.5176C300.148 17.5176 302.487 18.0859 303.86 19.2332C305.223 20.3698 305.91 22.4607 305.91 25.4844C305.91 27.6825 305.513 29.3445 304.74 30.4597C303.957 31.5748 302.658 32.2503 300.856 32.4862V32.6899C302.637 33.2261 303.785 34.5449 304.322 36.668L306.907 45.3318ZM183.654 31.0058V31.1666C185.65 31.3489 187.055 32.0459 187.892 33.2575C188.729 34.4692 189.148 36.2062 189.148 38.4901C189.148 41.2458 188.493 43.133 187.173 44.1409C185.864 45.1488 183.568 45.6528 180.306 45.6528C175.821 45.6528 172.366 45.5455 169.952 45.3311V17.8814C172.098 17.667 175.156 17.5598 179.104 17.5598C182.559 17.5598 184.952 18.053 186.293 19.0502C187.635 20.0474 188.3 21.9346 188.3 24.7224C188.3 26.7168 187.924 28.2179 187.184 29.2366C186.454 30.2552 185.274 30.845 183.654 31.0058ZM157.902 31.1667V31.0059C159.511 30.845 160.702 30.2553 161.432 29.2367C162.172 28.218 162.548 26.7169 162.548 24.7225C162.548 21.9346 161.883 20.0475 160.542 19.0503C159.2 18.0531 156.808 17.5598 153.353 17.5598C149.404 17.5598 146.346 17.6671 144.2 17.8815V45.3311C146.614 45.5456 150.069 45.6528 154.554 45.6528C157.816 45.6528 160.112 45.1489 161.421 44.1409C162.741 43.133 163.396 41.2459 163.396 38.4902C163.396 36.2063 162.977 34.4692 162.14 33.2576C161.303 32.046 159.898 31.349 157.902 31.1667ZM137.708 42.0281L137.912 45.0947C135.498 45.3092 131.571 45.4164 126.131 45.4164C124.436 45.4164 123.094 44.9768 122.107 44.0868C121.12 43.1968 120.616 41.9959 120.594 40.484V22.7383C120.616 21.2264 121.12 20.0255 122.107 19.1355C123.084 18.2456 124.425 17.8059 126.131 17.8059C131.571 17.8059 135.498 17.9132 137.912 18.1276L137.708 21.2264H126.796C126.002 21.2264 125.434 21.4194 125.101 21.8054C124.768 22.1914 124.607 22.8455 124.607 23.7784V29.2683H136.196V32.4958H124.607V39.4976C124.607 40.4304 124.768 41.0845 125.101 41.4705C125.434 41.8565 125.992 42.0495 126.796 42.0495H137.708V42.0281ZM115.304 17.8815L115.302 17.8922H111.055L107.117 38.8976C107.042 39.2729 106.946 39.8412 106.838 40.6132C106.787 40.9824 106.743 41.3049 106.705 41.5821L106.705 41.5824L106.705 41.5826L106.705 41.5857C106.664 41.8866 106.63 42.1338 106.602 42.3288H105.69C105.497 41.085 105.304 39.927 105.089 38.8655L101.184 19.2111C101.109 18.8465 100.926 18.5356 100.647 18.2782C100.368 18.0316 100.046 17.903 99.6707 17.903H95.411C94.5848 17.903 94.0805 18.3319 93.8981 19.2111L89.9602 38.8226C89.692 40.0235 89.4881 41.1923 89.3594 42.3288H88.4473C88.2005 40.4417 88.0396 39.2729 87.9645 38.8226L84.0266 17.8922H79.8098L85.0674 44.1946C85.2498 44.9666 85.7541 45.3526 86.5803 45.3526H91.0439C91.4195 45.3526 91.7628 45.2346 92.0633 45.0095C92.3637 44.7843 92.5461 44.4948 92.5998 44.1517L96.5376 23.9826L97.1385 20.8838H97.9754C98.0827 21.5701 98.2651 22.5994 98.5334 23.9826L102.514 44.1517C102.707 44.9451 103.222 45.3419 104.07 45.3419H108.491C109.285 45.3419 109.81 44.9559 110.046 44.1838L115.302 17.8922H115.304V17.8815ZM148.106 29.5804H153.675C155.585 29.5804 156.904 29.2802 157.634 28.6905C158.364 28.09 158.728 26.932 158.728 25.2057C158.728 23.5115 158.331 22.3749 157.537 21.8066C156.743 21.2383 155.284 20.9488 153.16 20.9488H148.106V29.5804ZM153.954 42.2633L148.106 42.2205V32.6453H153.718C155.874 32.6774 157.355 33.042 158.16 33.7604C158.964 34.4681 159.372 35.8191 159.372 37.8135C159.372 39.5934 158.986 40.7729 158.235 41.3734C157.473 41.9631 156.046 42.2633 153.954 42.2633ZM179.427 29.5804H173.858V20.9487H178.912C181.036 20.9487 182.495 21.2383 183.289 21.8065C184.083 22.3748 184.48 23.5114 184.48 25.2056C184.48 26.9319 184.115 28.0899 183.386 28.6904C182.656 29.2801 181.336 29.5804 179.427 29.5804ZM173.858 42.2204L179.706 42.2633C181.798 42.2633 183.225 41.963 183.987 41.3733C184.738 40.7729 185.124 39.5934 185.124 37.8134C185.124 35.819 184.716 34.468 183.912 33.7603C183.107 33.0419 181.626 32.6774 179.469 32.6452H173.858V42.2204ZM199.341 37.0532H210.285L212.839 45.331H216.938L208.3 18.9536C208.139 18.2352 207.656 17.8814 206.862 17.8814H202.806C202.045 17.8814 201.551 18.2352 201.336 18.9536L192.742 45.331H196.798L199.341 37.0532ZM209.254 33.5908L206.025 23.1685C205.95 22.9326 205.832 22.5573 205.681 22.0533C205.653 21.9564 205.625 21.8642 205.599 21.7768L205.598 21.7731C205.49 21.4082 205.407 21.1281 205.338 20.9382H204.265L203.632 23.1685L200.402 33.5908H209.254ZM243.13 43.7781V17.8832H239.192V37.173C239.192 38.4168 239.267 39.8429 239.396 41.4298H238.795C238.602 41.0009 238.398 40.5506 238.173 40.0574C237.948 39.5641 237.701 39.0494 237.433 38.5026C237.164 37.9665 236.982 37.5697 236.875 37.3338L228.559 19.1163C228.162 18.2907 227.583 17.8832 226.81 17.8832H223.151C222.143 17.8832 221.638 18.4086 221.638 19.438V45.3328H225.619V25.3997C225.619 23.92 225.544 22.644 225.415 21.5825H225.973C226.102 22.0543 226.649 23.3302 227.604 25.3997L236.167 44.0997C236.521 44.9254 237.089 45.3328 237.883 45.3328H241.66C242.637 45.3328 243.13 44.8074 243.13 43.7781ZM257.626 32.6358H254.525C254.707 33.7509 254.804 34.6945 254.804 35.4558V45.3205H250.823V17.8709H254.804V26.3095C254.804 27.4461 254.707 28.4862 254.525 29.4083H257.626L265.705 17.8709H270.04L262.272 29.0866C261.843 29.6978 261.285 30.3305 260.598 30.9953V31.1132C261.338 31.7458 261.982 32.4428 262.508 33.1826L270.545 45.3205H266.124L257.626 32.6358ZM275.577 45.3328H279.557V17.8832H275.577V45.3328ZM296.746 30.6098H291.177V20.9917C292.186 20.9595 294.042 20.9488 296.746 20.9488C298.709 20.9488 300.061 21.2812 300.791 21.946C301.521 22.6001 301.886 23.8653 301.886 25.7203C301.886 27.6075 301.521 28.8835 300.791 29.559C300.061 30.2345 298.709 30.5884 296.746 30.6098Z" fill="black"/>
<path fill-rule="evenodd" clip-rule="evenodd" d="M306.907 45.3318H302.648L300.298 36.7752C299.718 34.9417 298.56 34.0302 296.832 34.0302L291.178 33.9874V45.3211H287.24V17.8714C289.493 17.6355 292.69 17.5176 296.832 17.5176C300.148 17.5176 302.487 18.0859 303.86 19.2332C305.223 20.3698 305.91 22.4607 305.91 25.4844C305.91 27.6825 305.513 29.3445 304.74 30.4597C303.957 31.5748 302.658 32.2503 300.856 32.4862V32.6899C302.637 33.2261 303.785 34.5449 304.322 36.668L306.907 45.3318ZM183.654 31.0058V31.1666C185.65 31.3489 187.055 32.0459 187.892 33.2575C188.729 34.4692 189.148 36.2062 189.148 38.4901C189.148 41.2458 188.493 43.133 187.173 44.1409C185.864 45.1488 183.568 45.6528 180.306 45.6528C175.821 45.6528 172.366 45.5455 169.952 45.3311V17.8814C172.098 17.667 175.156 17.5598 179.104 17.5598C182.559 17.5598 184.952 18.053 186.293 19.0502C187.635 20.0474 188.3 21.9346 188.3 24.7224C188.3 26.7168 187.924 28.2179 187.184 29.2366C186.454 30.2552 185.274 30.845 183.654 31.0058ZM157.902 31.1667V31.0059C159.511 30.845 160.702 30.2553 161.432 29.2367C162.172 28.218 162.548 26.7169 162.548 24.7225C162.548 21.9346 161.883 20.0475 160.542 19.0503C159.2 18.0531 156.808 17.5598 153.353 17.5598C149.404 17.5598 146.346 17.6671 144.2 17.8815V45.3311C146.614 45.5456 150.069 45.6528 154.554 45.6528C157.816 45.6528 160.112 45.1489 161.421 44.1409C162.741 43.133 163.396 41.2459 163.396 38.4902C163.396 36.2063 162.977 34.4692 162.14 33.2576C161.303 32.046 159.898 31.349 157.902 31.1667ZM137.708 42.0281L137.912 45.0947C135.498 45.3092 131.571 45.4164 126.131 45.4164C124.436 45.4164 123.094 44.9768 122.107 44.0868C121.12 43.1968 120.616 41.9959 120.594 40.484V22.7383C120.616 21.2264 121.12 20.0255 122.107 19.1355C123.084 18.2456 124.425 17.8059 126.131 17.8059C131.571 17.8059 135.498 17.9132 137.912 18.1276L137.708 21.2264H126.796C126.002 21.2264 125.434 21.4194 125.101 21.8054C124.768 22.1914 124.607 22.8455 124.607 23.7784V29.2683H136.196V32.4958H124.607V39.4976C124.607 40.4304 124.768 41.0845 125.101 41.4705C125.434 41.8565 125.992 42.0495 126.796 42.0495H137.708V42.0281ZM115.304 17.8815L115.302 17.8922H111.055L107.117 38.8976C107.042 39.2729 106.946 39.8412 106.838 40.6132C106.787 40.9824 106.743 41.3049 106.705 41.5821L106.705 41.5824L106.705 41.5826L106.705 41.5857C106.664 41.8866 106.63 42.1338 106.602 42.3288H105.69C105.497 41.085 105.304 39.927 105.089 38.8655L101.184 19.2111C101.109 18.8465 100.926 18.5356 100.647 18.2782C100.368 18.0316 100.046 17.903 99.6707 17.903H95.411C94.5848 17.903 94.0805 18.3319 93.8981 19.2111L89.9602 38.8226C89.692 40.0235 89.4881 41.1923 89.3594 42.3288H88.4473C88.2005 40.4417 88.0396 39.2729 87.9645 38.8226L84.0266 17.8922H79.8098L85.0674 44.1946C85.2498 44.9666 85.7541 45.3526 86.5803 45.3526H91.0439C91.4195 45.3526 91.7628 45.2346 92.0633 45.0095C92.3637 44.7843 92.5461 44.4948 92.5998 44.1517L96.5376 23.9826L97.1385 20.8838H97.9754C98.0827 21.5701 98.2651 22.5994 98.5334 23.9826L102.514 44.1517C102.707 44.9451 103.222 45.3419 104.07 45.3419H108.491C109.285 45.3419 109.81 44.9559 110.046 44.1838L115.302 17.8922H115.304V17.8815ZM148.106 29.5804H153.675C155.585 29.5804 156.904 29.2802 157.634 28.6905C158.364 28.09 158.728 26.932 158.728 25.2057C158.728 23.5115 158.331 22.3749 157.537 21.8066C156.743 21.2383 155.284 20.9488 153.16 20.9488H148.106V29.5804ZM153.954 42.2633L148.106 42.2205V32.6453H153.718C155.874 32.6774 157.355 33.042 158.16 33.7604C158.964 34.4681 159.372 35.8191 159.372 37.8135C159.372 39.5934 158.986 40.7729 158.235 41.3734C157.473 41.9631 156.046 42.2633 153.954 42.2633ZM179.427 29.5804H173.858V20.9487H178.912C181.036 20.9487 182.495 21.2383 183.289 21.8065C184.083 22.3748 184.48 23.5114 184.48 25.2056C184.48 26.9319 184.115 28.0899 183.386 28.6904C182.656 29.2801 181.336 29.5804 179.427 29.5804ZM173.858 42.2204L179.706 42.2633C181.798 42.2633 183.225 41.963 183.987 41.3733C184.738 40.7729 185.124 39.5934 185.124 37.8134C185.124 35.819 184.716 34.468 183.912 33.7603C183.107 33.0419 181.626 32.6774 179.469 32.6452H173.858V42.2204ZM199.341 37.0532H210.285L212.839 45.331H216.938L208.3 18.9536C208.139 18.2352 207.656 17.8814 206.862 17.8814H202.806C202.045 17.8814 201.551 18.2352 201.336 18.9536L192.742 45.331H196.798L199.341 37.0532ZM209.254 33.5908L206.025 23.1685C205.95 22.9326 205.832 22.5573 205.681 22.0533C205.653 21.9564 205.625 21.8642 205.599 21.7768L205.598 21.7731C205.49 21.4082 205.407 21.1281 205.338 20.9382H204.265L203.632 23.1685L200.402 33.5908H209.254ZM243.13 43.7781V17.8832H239.192V37.173C239.192 38.4168 239.267 39.8429 239.396 41.4298H238.795C238.602 41.0009 238.398 40.5506 238.173 40.0574C237.948 39.5641 237.701 39.0494 237.433 38.5026C237.164 37.9665 236.982 37.5697 236.875 37.3338L228.559 19.1163C228.162 18.2907 227.583 17.8832 226.81 17.8832H223.151C222.143 17.8832 221.638 18.4086 221.638 19.438V45.3328H225.619V25.3997C225.619 23.92 225.544 22.644 225.415 21.5825H225.973C226.102 22.0543 226.649 23.3302 227.604 25.3997L236.167 44.0997C236.521 44.9254 237.089 45.3328 237.883 45.3328H241.66C242.637 45.3328 243.13 44.8074 243.13 43.7781ZM257.626 32.6358H254.525C254.707 33.7509 254.804 34.6945 254.804 35.4558V45.3205H250.823V17.8709H254.804V26.3095C254.804 27.4461 254.707 28.4862 254.525 29.4083H257.626L265.705 17.8709H270.04L262.272 29.0866C261.843 29.6978 261.285 30.3305 260.598 30.9953V31.1132C261.338 31.7458 261.982 32.4428 262.508 33.1826L270.545 45.3205H266.124L257.626 32.6358ZM275.577 45.3328H279.557V17.8832H275.577V45.3328ZM296.746 30.6098H291.177V20.9917C292.186 20.9595 294.042 20.9488 296.746 20.9488C298.709 20.9488 300.061 21.2812 300.791 21.946C301.521 22.6001 301.886 23.8653 301.886 25.7203C301.886 27.6075 301.521 28.8835 300.791 29.559C300.061 30.2345 298.709 30.5884 296.746 30.6098Z" fill="black"/>
<path d="M30.6589 0C47.5699 0 61.3179 13.7167 61.3179 30.6589C61.3179 47.5699 47.6012 61.3179 30.6589 61.3179C13.748 61.3179 0 47.6012 0 30.6589C0 13.7167 13.7167 0 30.6589 0Z" fill="#F8DA5E"/>
<path d="M19.0023 36.5222C18.8773 36.3973 18.7836 36.2411 18.6899 36.0849C18.6274 35.9287 18.5962 35.7412 18.5962 35.5538C18.5962 35.3664 18.6274 35.1789 18.6899 35.0227C18.7524 34.8666 18.8461 34.7104 19.0023 34.5854L36.5898 16.9354C36.7148 16.8104 36.871 16.7167 37.0272 16.623C37.1834 16.5605 37.3708 16.5293 37.5582 16.5293C37.7457 16.5293 37.9331 16.5605 38.0893 16.623C38.2455 16.6855 38.4017 16.7792 38.5266 16.9354L49.0229 27.4629C49.1479 27.5879 49.2416 27.7441 49.3353 27.9003C49.3978 28.0565 49.429 28.2439 49.429 28.4313C49.429 28.6188 49.3978 28.8062 49.3353 28.9624C49.2728 29.1186 49.1791 29.2748 49.0229 29.3997L31.4354 47.0497C31.3104 47.1747 31.1542 47.2684 30.9981 47.3309C30.8419 47.3934 30.6544 47.4246 30.467 47.4246C30.2796 47.4246 30.1234 47.3934 29.9359 47.3309C29.7797 47.2684 29.6235 47.1747 29.4986 47.0497L19.0023 36.5222Z" fill="#F8DA5E"/>
<path d="M19.0023 36.5222C18.8773 36.3973 18.7836 36.2411 18.6899 36.0849C18.6274 35.9287 18.5962 35.7412 18.5962 35.5538C18.5962 35.3664 18.6274 35.1789 18.6899 35.0227C18.7524 34.8666 18.8461 34.7104 19.0023 34.5854L36.5898 16.9354C36.7148 16.8104 36.871 16.7167 37.0272 16.623C37.1834 16.5605 37.3708 16.5293 37.5582 16.5293C37.7457 16.5293 37.9331 16.5605 38.0893 16.623C38.2455 16.6855 38.4017 16.7792 38.5266 16.9354L49.0229 27.4629C49.1479 27.5879 49.2416 27.7441 49.3353 27.9003C49.3978 28.0565 49.429 28.2439 49.429 28.4313C49.429 28.6188 49.3978 28.8062 49.3353 28.9624C49.2728 29.1186 49.1791 29.2748 49.0229 29.3997L31.4354 47.0497C31.3104 47.1747 31.1542 47.2684 30.9981 47.3309C30.8419 47.3934 30.6544 47.4246 30.467 47.4246C30.2796 47.4246 30.1234 47.3934 29.9359 47.3309C29.7797 47.2684 29.6235 47.1747 29.4986 47.0497L19.0023 36.5222Z" fill="white"/>
<path d="M19.0023 36.5222C18.8773 36.3973 18.7836 36.2411 18.6899 36.0849C18.6274 35.9287 18.5962 35.7412 18.5962 35.5538C18.5962 35.3664 18.6274 35.1789 18.6899 35.0227C18.7524 34.8666 18.8461 34.7104 19.0023 34.5854L36.5898 16.9354C36.7148 16.8104 36.871 16.7167 37.0272 16.623C37.1834 16.5605 37.3708 16.5293 37.5582 16.5293C37.7457 16.5293 37.9331 16.5605 38.0893 16.623C38.2455 16.6855 38.4017 16.7792 38.5266 16.9354L49.0229 27.4629C49.1479 27.5879 49.2416 27.7441 49.3353 27.9003C49.3978 28.0565 49.429 28.2439 49.429 28.4313C49.429 28.6188 49.3978 28.8062 49.3353 28.9624C49.2728 29.1186 49.1791 29.2748 49.0229 29.3997L31.4354 47.0497C31.3104 47.1747 31.1542 47.2684 30.9981 47.3309C30.8419 47.3934 30.6544 47.4246 30.467 47.4246C30.2796 47.4246 30.1234 47.3934 29.9359 47.3309C29.7797 47.2684 29.6235 47.1747 29.4986 47.0497L19.0023 36.5222Z" fill="#F8DA5E"/>
<path d="M19.0023 36.5222C18.8773 36.3973 18.7836 36.2411 18.6899 36.0849C18.6274 35.9287 18.5962 35.7412 18.5962 35.5538C18.5962 35.3664 18.6274 35.1789 18.6899 35.0227C18.7524 34.8666 18.8461 34.7104 19.0023 34.5854L36.5898 16.9354C36.7148 16.8104 36.871 16.7167 37.0272 16.623C37.1834 16.5605 37.3708 16.5293 37.5582 16.5293C37.7457 16.5293 37.9331 16.5605 38.0893 16.623C38.2455 16.6855 38.4017 16.7792 38.5266 16.9354L49.0229 27.4629C49.1479 27.5879 49.2416 27.7441 49.3353 27.9003C49.3978 28.0565 49.429 28.2439 49.429 28.4313C49.429 28.6188 49.3978 28.8062 49.3353 28.9624C49.2728 29.1186 49.1791 29.2748 49.0229 29.3997L31.4354 47.0497C31.3104 47.1747 31.1542 47.2684 30.9981 47.3309C30.8419 47.3934 30.6544 47.4246 30.467 47.4246C30.2796 47.4246 30.1234 47.3934 29.9359 47.3309C29.7797 47.2684 29.6235 47.1747 29.4986 47.0497L19.0023 36.5222Z" fill="white"/>
<path d="M19.0023 36.5222C18.8773 36.3973 18.7836 36.2411 18.6899 36.0849C18.6274 35.9287 18.5962 35.7412 18.5962 35.5538C18.5962 35.3664 18.6274 35.1789 18.6899 35.0227C18.7524 34.8666 18.8461 34.7104 19.0023 34.5854L36.5898 16.9354C36.7148 16.8104 36.871 16.7167 37.0272 16.623C37.1834 16.5605 37.3708 16.5293 37.5582 16.5293C37.7457 16.5293 37.9331 16.5605 38.0893 16.623C38.2455 16.6855 38.4017 16.7792 38.5266 16.9354L49.0229 27.4629C49.1479 27.5879 49.2416 27.7441 49.3353 27.9003C49.3978 28.0565 49.429 28.2439 49.429 28.4313C49.429 28.6188 49.3978 28.8062 49.3353 28.9624C49.2728 29.1186 49.1791 29.2748 49.0229 29.3997L31.4354 47.0497C31.3104 47.1747 31.1542 47.2684 30.9981 47.3309C30.8419 47.3934 30.6544 47.4246 30.467 47.4246C30.2796 47.4246 30.1234 47.3934 29.9359 47.3309C29.7797 47.2684 29.6235 47.1747 29.4986 47.0497L19.0023 36.5222Z" stroke="#030608" stroke-width="1.5" stroke-miterlimit="10"/>
<path d="M31.2052 47.197C31.083 47.3189 30.9303 47.4103 30.7776 47.5018C30.6249 47.5627 30.4417 47.5932 30.2585 47.5932C30.0752 47.5932 29.9225 47.5627 29.7393 47.5018C29.5866 47.4408 29.4339 47.3494 29.3118 47.197L12.1184 29.9775C11.8741 29.7336 11.7214 29.3984 11.7214 29.0327C11.7214 28.6669 11.8741 28.3317 12.1184 28.0879L22.41 17.8171C22.5322 17.6952 22.6849 17.6038 22.8375 17.5123C22.9902 17.4514 23.1735 17.4209 23.3567 17.4209C23.5399 17.4209 23.6926 17.4514 23.8759 17.5123C24.0286 17.5733 24.1812 17.6647 24.3034 17.8171L41.4967 35.0366C41.741 35.2805 41.8937 35.6157 41.8937 35.9814C41.8937 36.3472 41.741 36.6824 41.4967 36.9262L31.2052 47.197Z" fill="#F8DA5E"/>
<path d="M31.2052 47.197C31.083 47.3189 30.9303 47.4103 30.7776 47.5018C30.6249 47.5627 30.4417 47.5932 30.2585 47.5932C30.0752 47.5932 29.9225 47.5627 29.7393 47.5018C29.5866 47.4408 29.4339 47.3494 29.3118 47.197L12.1184 29.9775C11.8741 29.7336 11.7214 29.3984 11.7214 29.0327C11.7214 28.6669 11.8741 28.3317 12.1184 28.0879L22.41 17.8171C22.5322 17.6952 22.6849 17.6038 22.8375 17.5123C22.9902 17.4514 23.1735 17.4209 23.3567 17.4209C23.5399 17.4209 23.6926 17.4514 23.8759 17.5123C24.0286 17.5733 24.1812 17.6647 24.3034 17.8171L41.4967 35.0366C41.741 35.2805 41.8937 35.6157 41.8937 35.9814C41.8937 36.3472 41.741 36.6824 41.4967 36.9262L31.2052 47.197Z" fill="white"/>
<path d="M31.2052 47.197C31.083 47.3189 30.9303 47.4103 30.7776 47.5018C30.6249 47.5627 30.4417 47.5932 30.2585 47.5932C30.0752 47.5932 29.9225 47.5627 29.7393 47.5018C29.5866 47.4408 29.4339 47.3494 29.3118 47.197L12.1184 29.9775C11.8741 29.7336 11.7214 29.3984 11.7214 29.0327C11.7214 28.6669 11.8741 28.3317 12.1184 28.0879L22.41 17.8171C22.5322 17.6952 22.6849 17.6038 22.8375 17.5123C22.9902 17.4514 23.1735 17.4209 23.3567 17.4209C23.5399 17.4209 23.6926 17.4514 23.8759 17.5123C24.0286 17.5733 24.1812 17.6647 24.3034 17.8171L41.4967 35.0366C41.741 35.2805 41.8937 35.6157 41.8937 35.9814C41.8937 36.3472 41.741 36.6824 41.4967 36.9262L31.2052 47.197Z" stroke="#030608" stroke-width="1.5" stroke-miterlimit="10"/>
<circle cx="34.1066" cy="39.8053" r="0.9733" fill="black"/>
<rect x="39.885" y="18.0537" width="3.8932" height="10.7063" transform="rotate(45 39.885 18.0537)" fill="black"/>
</svg>
