<svg xmlns="http://www.w3.org/2000/svg" viewBox="0 0 364.68 131.5"><defs><style>.cls-1,.cls-2{fill-rule:evenodd;}.cls-1{fill:url(#Безымянный_градиент_38);}.cls-2{fill:url(#Безымянный_градиент_26);}.cls-3{fill:#ff7e01;}.cls-4{fill:#4ba45e;}</style><linearGradient id="Безымянный_градиент_38" x1="36.16" y1="16.33" x2="88.45" y2="16.33" gradientUnits="userSpaceOnUse"><stop offset="0" stop-color="#469154"/><stop offset="0.16" stop-color="#4c9453"/><stop offset="0.37" stop-color="#5c9e4f"/><stop offset="0.61" stop-color="#77ae49"/><stop offset="0.86" stop-color="#9dc340"/><stop offset="1" stop-color="#b4d13b"/></linearGradient><linearGradient id="Безымянный_градиент_26" x1="76.04" y1="124.71" x2="25.34" y2="36.9" gradientUnits="userSpaceOnUse"><stop offset="0" stop-color="#ff7e01"/><stop offset="0.25" stop-color="#ff8204"/><stop offset="0.5" stop-color="#ff8f0c"/><stop offset="0.76" stop-color="#ffa31a"/><stop offset="1" stop-color="#ffbe2c"/></linearGradient></defs><title>logo_2</title><g ><g id="Слой_1-2" ><path class="cls-1" d="M48.92,30.25C74,31.67,86.5,9.92,88.45.28,74.58-1.79,50.34,7.64,47.65,28.86a29.23,29.23,0,0,1,.29-5.95c-1-3.59-2.77-6.14-5.78-9.1-2.71-1.26-7.16,0-5.7,1.84,9.12,7.76,8.81,13.35,9.8,16.81,1,0,1.76.19,2.74.19,0-.84,0-1.64-.07-2.4"/><path class="cls-2" d="M50.69,30.11A50.69,50.69,0,1,1,0,80.81,50.7,50.7,0,0,1,50.69,30.11"/><path class="cls-3" d="M141,55.42q5.9,1.65,5.9,7.73a10.36,10.36,0,0,1-3.7,8.21q-3.7,3.2-10.45,3.2-11.53,0-14.32-10.08l9.56-.75a4.21,4.21,0,0,0,4.58,3.56,4.29,4.29,0,0,0,3.18-1.09,4.14,4.14,0,0,0,1.08-3,3.85,3.85,0,0,0-1.36-3.06,5.53,5.53,0,0,0-3.73-1.18H129v-6.1h2.17a4.23,4.23,0,0,0,3.05-1.06,3.88,3.88,0,0,0,1.11-2.94Q135.37,46,132,46t-4,3.19l-9-1.09q2.21-8.87,13.23-8.87,6.1,0,9.56,2.47a7.74,7.74,0,0,1,3.46,6.63Q145.25,53.39,141,55.42Z"/><path class="cls-3" d="M159.68,57.26l-8.69-1a10.41,10.41,0,0,1,1.42-3.74,7.92,7.92,0,0,1,2.67-2.36,10.87,10.87,0,0,1,3.44-1.12,26.68,26.68,0,0,1,4.74-.4,36.19,36.19,0,0,1,6.57.48,8.3,8.3,0,0,1,4.13,2,7,7,0,0,1,1.83,3,11.11,11.11,0,0,1,.67,3.67V68.71a13.7,13.7,0,0,0,.21,2.73A12.59,12.59,0,0,0,177.6,74h-8.54a9.13,9.13,0,0,1-.67-1.46,11.06,11.06,0,0,1-.31-1.57,11.77,11.77,0,0,1-3.55,2.56,14.27,14.27,0,0,1-5.61,1q-4.25,0-6.45-2a6.63,6.63,0,0,1-2.2-5.05,6.78,6.78,0,0,1,1.59-4.63q1.59-1.81,5.85-2.7,5.12-1.07,6.64-1.5a30.09,30.09,0,0,0,3.22-1.13,3.43,3.43,0,0,0-.69-2.44,3.38,3.38,0,0,0-2.44-.7,6.09,6.09,0,0,0-3.35.74A4.09,4.09,0,0,0,159.68,57.26Zm7.89,5q-1.88.7-3.91,1.23A8.87,8.87,0,0,0,160.15,65a2.49,2.49,0,0,0,0,3.57,3.08,3.08,0,0,0,2.2.71,5.49,5.49,0,0,0,2.83-.77A4.55,4.55,0,0,0,167,66.63a6.5,6.5,0,0,0,.55-2.87Z"/><path class="cls-3" d="M208.42,74h-8.6V61.81L190.89,74h-8.66V49.25h8.6V61.58l9-12.33h8.57Zm-5.77-34.71a6.54,6.54,0,0,1-2.26,5.19,7.9,7.9,0,0,1-5.21,1.82,7.79,7.79,0,0,1-5.52-1.85,7.58,7.58,0,0,1-2.26-5.16h3.84q.67,2.47,3.75,2.47a5.94,5.94,0,0,0,2.67-.5,2.72,2.72,0,0,0,1.31-2Z"/><path class="cls-3" d="M247.12,74h-7.69V58.45L233.82,74h-5.48l-6.11-15.52V74h-7.69V49.25h10.85l5.7,14.21,5.19-14.21h10.84Z"/><path class="cls-4" d="M119.3,94.43q4.07-8.59,15.11-8.59,8.2,0,12.61,4.56t4.41,12.85q0,8.64-4.36,13.26t-12.25,4.62q-7.11,0-10.93-2.92a15.27,15.27,0,0,1-5.34-7.58l9.52-2.68q1.39,5.26,6.37,5.26,5.81,0,6.64-6.54h-9.88v-6.33h9.92q-1-6.59-6.73-6.59a5.84,5.84,0,0,0-6,4.28Z"/><path class="cls-4" d="M182.74,120.55H172.48L169,113.72a4.64,4.64,0,0,0-1.62-2,4.17,4.17,0,0,0-2-.42v9.29h-9.09V95.83h9.09v8.94a2.35,2.35,0,0,0,1.65-.77,15.56,15.56,0,0,0,1.55-2.86,17,17,0,0,1,1.82-3.24,5,5,0,0,1,2.06-1.54,10.37,10.37,0,0,1,3.13-.65q1.88-.14,5.59-.14v6.73h-.4a19.33,19.33,0,0,0-2.79.15,3.09,3.09,0,0,0-1.54.64,6.67,6.67,0,0,0-1.34,2,11.6,11.6,0,0,1-1.26,2.11,2.58,2.58,0,0,1-1.49.8,6.63,6.63,0,0,1,2.93.85q1,.66,3.11,4.27Z"/><path class="cls-4" d="M203.41,110.87l8.65,1a12.85,12.85,0,0,1-2.35,4.88,10.93,10.93,0,0,1-4.17,3.2,15.79,15.79,0,0,1-6.45,1.14,22.88,22.88,0,0,1-6.29-.73,10.84,10.84,0,0,1-4.32-2.37,11.91,11.91,0,0,1-2.84-3.85,14,14,0,0,1-1-5.86,14.29,14.29,0,0,1,1.25-6.35,12.17,12.17,0,0,1,5.77-5.54,17.43,17.43,0,0,1,6.81-1.14q5.81,0,8.86,2.17a11.41,11.41,0,0,1,4.28,6.33L203,105a4.16,4.16,0,0,0-1.46-2.39,4.61,4.61,0,0,0-2.85-.8,4.52,4.52,0,0,0-3.65,1.68,7.86,7.86,0,0,0-1.4,5.1,6.81,6.81,0,0,0,1.38,4.62,4.49,4.49,0,0,0,3.53,1.58,4.72,4.72,0,0,0,3-1A5.72,5.72,0,0,0,203.41,110.87Z"/><path class="cls-4" d="M241.27,120.55h-9.09V102.74h-6.93v17.81h-9.09V95.83h25.12Z"/><path class="cls-4" d="M246.81,130V95.83h8.51v3.65a11.5,11.5,0,0,1,3.24-3.12,9,9,0,0,1,4.4-1.09,8.41,8.41,0,0,1,7.36,3.79,16.19,16.19,0,0,1,2.6,9.38q0,6.17-2.84,9.42a9.12,9.12,0,0,1-7.17,3.25,9.59,9.59,0,0,1-3.83-.75,9.1,9.1,0,0,1-3.09-2.21V130Zm9.12-21.69a6.69,6.69,0,0,0,1.18,4.35,3.73,3.73,0,0,0,3,1.42,3.27,3.27,0,0,0,2.66-1.36q1.07-1.36,1.07-4.62a7.08,7.08,0,0,0-1.12-4.41,3.37,3.37,0,0,0-2.73-1.41,3.6,3.6,0,0,0-2.9,1.42A7.28,7.28,0,0,0,255.92,108.26Z"/><path class="cls-4" d="M303.63,110.54H285.4a6.29,6.29,0,0,0,1.18,3.4,4.24,4.24,0,0,0,3.44,1.61,5,5,0,0,0,2.55-.7,6.07,6.07,0,0,0,1.59-1.56l9,.86a13.14,13.14,0,0,1-5,5.34q-2.9,1.62-8.33,1.62a16.47,16.47,0,0,1-7.42-1.38,11.08,11.08,0,0,1-4.48-4.4,13.7,13.7,0,0,1-1.78-7.09,12.73,12.73,0,0,1,3.56-9.38q3.56-3.58,9.84-3.58a16.92,16.92,0,0,1,8,1.61,10.64,10.64,0,0,1,4.49,4.66,17.62,17.62,0,0,1,1.54,7.94ZM294.38,106a6.49,6.49,0,0,0-1.42-3.93,4.33,4.33,0,0,0-6.49.61,6.74,6.74,0,0,0-1.05,3.33Z"/><path class="cls-4" d="M325.51,110.87l8.65,1a12.83,12.83,0,0,1-2.35,4.88,10.93,10.93,0,0,1-4.17,3.2,15.79,15.79,0,0,1-6.45,1.14,22.87,22.87,0,0,1-6.29-.73,10.85,10.85,0,0,1-4.32-2.37,11.92,11.92,0,0,1-2.84-3.85,14,14,0,0,1-1-5.86,14.28,14.28,0,0,1,1.25-6.35,12.17,12.17,0,0,1,5.76-5.54,17.44,17.44,0,0,1,6.82-1.14q5.81,0,8.86,2.17a11.41,11.41,0,0,1,4.28,6.33L325.13,105a4.16,4.16,0,0,0-1.46-2.39,4.61,4.61,0,0,0-2.85-.8,4.52,4.52,0,0,0-3.65,1.68,7.87,7.87,0,0,0-1.4,5.1,6.81,6.81,0,0,0,1.39,4.62,4.49,4.49,0,0,0,3.53,1.58,4.72,4.72,0,0,0,3-1A5.72,5.72,0,0,0,325.51,110.87Z"/><path class="cls-4" d="M356,110.87l8.65,1a12.83,12.83,0,0,1-2.35,4.88,10.93,10.93,0,0,1-4.17,3.2,15.79,15.79,0,0,1-6.45,1.14,22.87,22.87,0,0,1-6.29-.73A10.85,10.85,0,0,1,341.1,118a11.92,11.92,0,0,1-2.84-3.85,14,14,0,0,1-1-5.86,14.28,14.28,0,0,1,1.25-6.35,12.17,12.17,0,0,1,5.76-5.54,17.44,17.44,0,0,1,6.82-1.14q5.81,0,8.86,2.17a11.41,11.41,0,0,1,4.28,6.33L355.65,105a4.16,4.16,0,0,0-1.46-2.39,4.61,4.61,0,0,0-2.85-.8,4.52,4.52,0,0,0-3.65,1.68,7.87,7.87,0,0,0-1.4,5.1,6.81,6.81,0,0,0,1.39,4.62,4.49,4.49,0,0,0,3.53,1.58,4.72,4.72,0,0,0,3-1A5.72,5.72,0,0,0,356,110.87Z"/></g></g></svg>
